<?xml version="1.0" encoding="utf-8" standalone="no"?>
<!DOCTYPE svg PUBLIC "-//W3C//DTD SVG 1.1//EN"
  "http://www.w3.org/Graphics/SVG/1.1/DTD/svg11.dtd">
<svg xmlns:xlink="http://www.w3.org/1999/xlink" width="864pt" height="864pt" viewBox="0 0 864 864" xmlns="http://www.w3.org/2000/svg" version="1.1">
 <metadata>
  <rdf:RDF xmlns:dc="http://purl.org/dc/elements/1.1/" xmlns:cc="http://creativecommons.org/ns#" xmlns:rdf="http://www.w3.org/1999/02/22-rdf-syntax-ns#">
   <cc:Work>
    <dc:type rdf:resource="http://purl.org/dc/dcmitype/StillImage"/>
    <dc:date>2024-08-06T16:38:29.069401</dc:date>
    <dc:format>image/svg+xml</dc:format>
    <dc:creator>
     <cc:Agent>
      <dc:title>Matplotlib v3.5.1, https://matplotlib.org/</dc:title>
     </cc:Agent>
    </dc:creator>
   </cc:Work>
  </rdf:RDF>
 </metadata>
 <defs>
  <style type="text/css">*{stroke-linejoin: round; stroke-linecap: butt}</style>
 </defs>
 <g id="figure_1">
  <g id="patch_1">
   <path d="M 0 864 
L 864 864 
L 864 0 
L 0 0 
z
" style="fill: #ffffff"/>
  </g>
  <g id="axes_1">
   <g id="patch_2">
    <path d="M 86.4 604.8 
L 846.72 604.8 
L 846.72 43.2 
L 86.4 43.2 
z
" style="fill: #ffffff"/>
   </g>
   <g id="matplotlib.axis_1">
    <g id="xtick_1">
     <g id="line2d_1">
      <defs>
       <path id="md150aef0db" d="M 0 0 
L 0 3.5 
" style="stroke: #000000; stroke-width: 0.8"/>
      </defs>
      <g>
       <use xlink:href="#md150aef0db" x="120.96" y="604.8" style="stroke: #000000; stroke-width: 0.8"/>
      </g>
     </g>
     <g id="text_1">
      <!-- 0.0 -->
      <g transform="translate(109.84 623.2525)scale(0.16 -0.16)">
       <defs>
        <path id="ArialMT-30" d="M 266 2259 
Q 266 3072 433 3567 
Q 600 4063 929 4331 
Q 1259 4600 1759 4600 
Q 2128 4600 2406 4451 
Q 2684 4303 2865 4023 
Q 3047 3744 3150 3342 
Q 3253 2941 3253 2259 
Q 3253 1453 3087 958 
Q 2922 463 2592 192 
Q 2263 -78 1759 -78 
Q 1097 -78 719 397 
Q 266 969 266 2259 
z
M 844 2259 
Q 844 1131 1108 757 
Q 1372 384 1759 384 
Q 2147 384 2411 759 
Q 2675 1134 2675 2259 
Q 2675 3391 2411 3762 
Q 2147 4134 1753 4134 
Q 1366 4134 1134 3806 
Q 844 3388 844 2259 
z
" transform="scale(0.015625)"/>
        <path id="ArialMT-2e" d="M 581 0 
L 581 641 
L 1222 641 
L 1222 0 
L 581 0 
z
" transform="scale(0.015625)"/>
       </defs>
       <use xlink:href="#ArialMT-30"/>
       <use xlink:href="#ArialMT-2e" x="55.615234"/>
       <use xlink:href="#ArialMT-30" x="83.398438"/>
      </g>
     </g>
    </g>
    <g id="xtick_2">
     <g id="line2d_2">
      <g>
       <use xlink:href="#md150aef0db" x="259.2" y="604.8" style="stroke: #000000; stroke-width: 0.8"/>
      </g>
     </g>
     <g id="text_2">
      <!-- 0.5 -->
      <g transform="translate(248.08 623.2525)scale(0.16 -0.16)">
       <defs>
        <path id="ArialMT-35" d="M 266 1200 
L 856 1250 
Q 922 819 1161 601 
Q 1400 384 1738 384 
Q 2144 384 2425 690 
Q 2706 997 2706 1503 
Q 2706 1984 2436 2262 
Q 2166 2541 1728 2541 
Q 1456 2541 1237 2417 
Q 1019 2294 894 2097 
L 366 2166 
L 809 4519 
L 3088 4519 
L 3088 3981 
L 1259 3981 
L 1013 2750 
Q 1425 3038 1878 3038 
Q 2478 3038 2890 2622 
Q 3303 2206 3303 1553 
Q 3303 931 2941 478 
Q 2500 -78 1738 -78 
Q 1113 -78 717 272 
Q 322 622 266 1200 
z
" transform="scale(0.015625)"/>
       </defs>
       <use xlink:href="#ArialMT-30"/>
       <use xlink:href="#ArialMT-2e" x="55.615234"/>
       <use xlink:href="#ArialMT-35" x="83.398438"/>
      </g>
     </g>
    </g>
    <g id="xtick_3">
     <g id="line2d_3">
      <g>
       <use xlink:href="#md150aef0db" x="397.44" y="604.8" style="stroke: #000000; stroke-width: 0.8"/>
      </g>
     </g>
     <g id="text_3">
      <!-- 1.0 -->
      <g transform="translate(386.32 623.2525)scale(0.16 -0.16)">
       <defs>
        <path id="ArialMT-31" d="M 2384 0 
L 1822 0 
L 1822 3584 
Q 1619 3391 1289 3197 
Q 959 3003 697 2906 
L 697 3450 
Q 1169 3672 1522 3987 
Q 1875 4303 2022 4600 
L 2384 4600 
L 2384 0 
z
" transform="scale(0.015625)"/>
       </defs>
       <use xlink:href="#ArialMT-31"/>
       <use xlink:href="#ArialMT-2e" x="55.615234"/>
       <use xlink:href="#ArialMT-30" x="83.398438"/>
      </g>
     </g>
    </g>
    <g id="xtick_4">
     <g id="line2d_4">
      <g>
       <use xlink:href="#md150aef0db" x="535.68" y="604.8" style="stroke: #000000; stroke-width: 0.8"/>
      </g>
     </g>
     <g id="text_4">
      <!-- 1.5 -->
      <g transform="translate(524.56 623.2525)scale(0.16 -0.16)">
       <use xlink:href="#ArialMT-31"/>
       <use xlink:href="#ArialMT-2e" x="55.615234"/>
       <use xlink:href="#ArialMT-35" x="83.398438"/>
      </g>
     </g>
    </g>
    <g id="xtick_5">
     <g id="line2d_5">
      <g>
       <use xlink:href="#md150aef0db" x="673.92" y="604.8" style="stroke: #000000; stroke-width: 0.8"/>
      </g>
     </g>
     <g id="text_5">
      <!-- 2.0 -->
      <g transform="translate(662.8 623.2525)scale(0.16 -0.16)">
       <defs>
        <path id="ArialMT-32" d="M 3222 541 
L 3222 0 
L 194 0 
Q 188 203 259 391 
Q 375 700 629 1000 
Q 884 1300 1366 1694 
Q 2113 2306 2375 2664 
Q 2638 3022 2638 3341 
Q 2638 3675 2398 3904 
Q 2159 4134 1775 4134 
Q 1369 4134 1125 3890 
Q 881 3647 878 3216 
L 300 3275 
Q 359 3922 746 4261 
Q 1134 4600 1788 4600 
Q 2447 4600 2831 4234 
Q 3216 3869 3216 3328 
Q 3216 3053 3103 2787 
Q 2991 2522 2730 2228 
Q 2469 1934 1863 1422 
Q 1356 997 1212 845 
Q 1069 694 975 541 
L 3222 541 
z
" transform="scale(0.015625)"/>
       </defs>
       <use xlink:href="#ArialMT-32"/>
       <use xlink:href="#ArialMT-2e" x="55.615234"/>
       <use xlink:href="#ArialMT-30" x="83.398438"/>
      </g>
     </g>
    </g>
    <g id="xtick_6">
     <g id="line2d_6">
      <g>
       <use xlink:href="#md150aef0db" x="812.16" y="604.8" style="stroke: #000000; stroke-width: 0.8"/>
      </g>
     </g>
     <g id="text_6">
      <!-- 2.5 -->
      <g transform="translate(801.04 623.2525)scale(0.16 -0.16)">
       <use xlink:href="#ArialMT-32"/>
       <use xlink:href="#ArialMT-2e" x="55.615234"/>
       <use xlink:href="#ArialMT-35" x="83.398438"/>
      </g>
     </g>
    </g>
    <g id="text_7">
     <!-- time (h) -->
     <g transform="translate(439.44875 642.08)scale(0.16 -0.16)">
      <defs>
       <path id="ArialMT-74" d="M 1650 503 
L 1731 6 
Q 1494 -44 1306 -44 
Q 1000 -44 831 53 
Q 663 150 594 308 
Q 525 466 525 972 
L 525 2881 
L 113 2881 
L 113 3319 
L 525 3319 
L 525 4141 
L 1084 4478 
L 1084 3319 
L 1650 3319 
L 1650 2881 
L 1084 2881 
L 1084 941 
Q 1084 700 1114 631 
Q 1144 563 1211 522 
Q 1278 481 1403 481 
Q 1497 481 1650 503 
z
" transform="scale(0.015625)"/>
       <path id="ArialMT-69" d="M 425 3934 
L 425 4581 
L 988 4581 
L 988 3934 
L 425 3934 
z
M 425 0 
L 425 3319 
L 988 3319 
L 988 0 
L 425 0 
z
" transform="scale(0.015625)"/>
       <path id="ArialMT-6d" d="M 422 0 
L 422 3319 
L 925 3319 
L 925 2853 
Q 1081 3097 1340 3245 
Q 1600 3394 1931 3394 
Q 2300 3394 2536 3241 
Q 2772 3088 2869 2813 
Q 3263 3394 3894 3394 
Q 4388 3394 4653 3120 
Q 4919 2847 4919 2278 
L 4919 0 
L 4359 0 
L 4359 2091 
Q 4359 2428 4304 2576 
Q 4250 2725 4106 2815 
Q 3963 2906 3769 2906 
Q 3419 2906 3187 2673 
Q 2956 2441 2956 1928 
L 2956 0 
L 2394 0 
L 2394 2156 
Q 2394 2531 2256 2718 
Q 2119 2906 1806 2906 
Q 1569 2906 1367 2781 
Q 1166 2656 1075 2415 
Q 984 2175 984 1722 
L 984 0 
L 422 0 
z
" transform="scale(0.015625)"/>
       <path id="ArialMT-65" d="M 2694 1069 
L 3275 997 
Q 3138 488 2766 206 
Q 2394 -75 1816 -75 
Q 1088 -75 661 373 
Q 234 822 234 1631 
Q 234 2469 665 2931 
Q 1097 3394 1784 3394 
Q 2450 3394 2872 2941 
Q 3294 2488 3294 1666 
Q 3294 1616 3291 1516 
L 816 1516 
Q 847 969 1125 678 
Q 1403 388 1819 388 
Q 2128 388 2347 550 
Q 2566 713 2694 1069 
z
M 847 1978 
L 2700 1978 
Q 2663 2397 2488 2606 
Q 2219 2931 1791 2931 
Q 1403 2931 1139 2672 
Q 875 2413 847 1978 
z
" transform="scale(0.015625)"/>
       <path id="ArialMT-20" transform="scale(0.015625)"/>
       <path id="ArialMT-28" d="M 1497 -1347 
Q 1031 -759 709 28 
Q 388 816 388 1659 
Q 388 2403 628 3084 
Q 909 3875 1497 4659 
L 1900 4659 
Q 1522 4009 1400 3731 
Q 1209 3300 1100 2831 
Q 966 2247 966 1656 
Q 966 153 1900 -1347 
L 1497 -1347 
z
" transform="scale(0.015625)"/>
       <path id="ArialMT-68" d="M 422 0 
L 422 4581 
L 984 4581 
L 984 2938 
Q 1378 3394 1978 3394 
Q 2347 3394 2619 3248 
Q 2891 3103 3008 2847 
Q 3125 2591 3125 2103 
L 3125 0 
L 2563 0 
L 2563 2103 
Q 2563 2525 2380 2717 
Q 2197 2909 1863 2909 
Q 1613 2909 1392 2779 
Q 1172 2650 1078 2428 
Q 984 2206 984 1816 
L 984 0 
L 422 0 
z
" transform="scale(0.015625)"/>
       <path id="ArialMT-29" d="M 791 -1347 
L 388 -1347 
Q 1322 153 1322 1656 
Q 1322 2244 1188 2822 
Q 1081 3291 891 3722 
Q 769 4003 388 4659 
L 791 4659 
Q 1378 3875 1659 3084 
Q 1900 2403 1900 1659 
Q 1900 816 1576 28 
Q 1253 -759 791 -1347 
z
" transform="scale(0.015625)"/>
      </defs>
      <use xlink:href="#ArialMT-74"/>
      <use xlink:href="#ArialMT-69" x="27.783203"/>
      <use xlink:href="#ArialMT-6d" x="50"/>
      <use xlink:href="#ArialMT-65" x="133.300781"/>
      <use xlink:href="#ArialMT-20" x="188.916016"/>
      <use xlink:href="#ArialMT-28" x="216.699219"/>
      <use xlink:href="#ArialMT-68" x="250"/>
      <use xlink:href="#ArialMT-29" x="305.615234"/>
     </g>
    </g>
   </g>
   <g id="matplotlib.axis_2">
    <g id="ytick_1">
     <g id="line2d_7">
      <defs>
       <path id="mf02bf29e17" d="M 0 0 
L -3.5 0 
" style="stroke: #000000; stroke-width: 0.8"/>
      </defs>
      <g>
       <use xlink:href="#mf02bf29e17" x="86.4" y="604.8" style="stroke: #000000; stroke-width: 0.8"/>
      </g>
     </g>
     <g id="text_8">
      <!-- 0 -->
      <g transform="translate(70.5025 610.52625)scale(0.16 -0.16)">
       <use xlink:href="#ArialMT-30"/>
      </g>
     </g>
    </g>
    <g id="ytick_2">
     <g id="line2d_8">
      <g>
       <use xlink:href="#mf02bf29e17" x="86.4" y="492.48" style="stroke: #000000; stroke-width: 0.8"/>
      </g>
     </g>
     <g id="text_9">
      <!-- 20 -->
      <g transform="translate(61.605 498.20625)scale(0.16 -0.16)">
       <use xlink:href="#ArialMT-32"/>
       <use xlink:href="#ArialMT-30" x="55.615234"/>
      </g>
     </g>
    </g>
    <g id="ytick_3">
     <g id="line2d_9">
      <g>
       <use xlink:href="#mf02bf29e17" x="86.4" y="380.16" style="stroke: #000000; stroke-width: 0.8"/>
      </g>
     </g>
     <g id="text_10">
      <!-- 40 -->
      <g transform="translate(61.605 385.88625)scale(0.16 -0.16)">
       <defs>
        <path id="ArialMT-34" d="M 2069 0 
L 2069 1097 
L 81 1097 
L 81 1613 
L 2172 4581 
L 2631 4581 
L 2631 1613 
L 3250 1613 
L 3250 1097 
L 2631 1097 
L 2631 0 
L 2069 0 
z
M 2069 1613 
L 2069 3678 
L 634 1613 
L 2069 1613 
z
" transform="scale(0.015625)"/>
       </defs>
       <use xlink:href="#ArialMT-34"/>
       <use xlink:href="#ArialMT-30" x="55.615234"/>
      </g>
     </g>
    </g>
    <g id="ytick_4">
     <g id="line2d_10">
      <g>
       <use xlink:href="#mf02bf29e17" x="86.4" y="267.84" style="stroke: #000000; stroke-width: 0.8"/>
      </g>
     </g>
     <g id="text_11">
      <!-- 60 -->
      <g transform="translate(61.605 273.56625)scale(0.16 -0.16)">
       <defs>
        <path id="ArialMT-36" d="M 3184 3459 
L 2625 3416 
Q 2550 3747 2413 3897 
Q 2184 4138 1850 4138 
Q 1581 4138 1378 3988 
Q 1113 3794 959 3422 
Q 806 3050 800 2363 
Q 1003 2672 1297 2822 
Q 1591 2972 1913 2972 
Q 2475 2972 2870 2558 
Q 3266 2144 3266 1488 
Q 3266 1056 3080 686 
Q 2894 316 2569 119 
Q 2244 -78 1831 -78 
Q 1128 -78 684 439 
Q 241 956 241 2144 
Q 241 3472 731 4075 
Q 1159 4600 1884 4600 
Q 2425 4600 2770 4297 
Q 3116 3994 3184 3459 
z
M 888 1484 
Q 888 1194 1011 928 
Q 1134 663 1356 523 
Q 1578 384 1822 384 
Q 2178 384 2434 671 
Q 2691 959 2691 1453 
Q 2691 1928 2437 2201 
Q 2184 2475 1800 2475 
Q 1419 2475 1153 2201 
Q 888 1928 888 1484 
z
" transform="scale(0.015625)"/>
       </defs>
       <use xlink:href="#ArialMT-36"/>
       <use xlink:href="#ArialMT-30" x="55.615234"/>
      </g>
     </g>
    </g>
    <g id="ytick_5">
     <g id="line2d_11">
      <g>
       <use xlink:href="#mf02bf29e17" x="86.4" y="155.52" style="stroke: #000000; stroke-width: 0.8"/>
      </g>
     </g>
     <g id="text_12">
      <!-- 80 -->
      <g transform="translate(61.605 161.24625)scale(0.16 -0.16)">
       <defs>
        <path id="ArialMT-38" d="M 1131 2484 
Q 781 2613 612 2850 
Q 444 3088 444 3419 
Q 444 3919 803 4259 
Q 1163 4600 1759 4600 
Q 2359 4600 2725 4251 
Q 3091 3903 3091 3403 
Q 3091 3084 2923 2848 
Q 2756 2613 2416 2484 
Q 2838 2347 3058 2040 
Q 3278 1734 3278 1309 
Q 3278 722 2862 322 
Q 2447 -78 1769 -78 
Q 1091 -78 675 323 
Q 259 725 259 1325 
Q 259 1772 486 2073 
Q 713 2375 1131 2484 
z
M 1019 3438 
Q 1019 3113 1228 2906 
Q 1438 2700 1772 2700 
Q 2097 2700 2305 2904 
Q 2513 3109 2513 3406 
Q 2513 3716 2298 3927 
Q 2084 4138 1766 4138 
Q 1444 4138 1231 3931 
Q 1019 3725 1019 3438 
z
M 838 1322 
Q 838 1081 952 856 
Q 1066 631 1291 507 
Q 1516 384 1775 384 
Q 2178 384 2440 643 
Q 2703 903 2703 1303 
Q 2703 1709 2433 1975 
Q 2163 2241 1756 2241 
Q 1359 2241 1098 1978 
Q 838 1716 838 1322 
z
" transform="scale(0.015625)"/>
       </defs>
       <use xlink:href="#ArialMT-38"/>
       <use xlink:href="#ArialMT-30" x="55.615234"/>
      </g>
     </g>
    </g>
    <g id="ytick_6">
     <g id="line2d_12">
      <g>
       <use xlink:href="#mf02bf29e17" x="86.4" y="43.2" style="stroke: #000000; stroke-width: 0.8"/>
      </g>
     </g>
     <g id="text_13">
      <!-- 100 -->
      <g transform="translate(52.7075 48.92625)scale(0.16 -0.16)">
       <use xlink:href="#ArialMT-31"/>
       <use xlink:href="#ArialMT-30" x="55.615234"/>
       <use xlink:href="#ArialMT-30" x="111.230469"/>
      </g>
     </g>
    </g>
    <g id="text_14">
     <!-- Yield % -->
     <g transform="translate(45.5275 350.825)rotate(-90)scale(0.16 -0.16)">
      <defs>
       <path id="ArialMT-59" d="M 1784 0 
L 1784 1941 
L 19 4581 
L 756 4581 
L 1659 3200 
Q 1909 2813 2125 2425 
Q 2331 2784 2625 3234 
L 3513 4581 
L 4219 4581 
L 2391 1941 
L 2391 0 
L 1784 0 
z
" transform="scale(0.015625)"/>
       <path id="ArialMT-6c" d="M 409 0 
L 409 4581 
L 972 4581 
L 972 0 
L 409 0 
z
" transform="scale(0.015625)"/>
       <path id="ArialMT-64" d="M 2575 0 
L 2575 419 
Q 2259 -75 1647 -75 
Q 1250 -75 917 144 
Q 584 363 401 755 
Q 219 1147 219 1656 
Q 219 2153 384 2558 
Q 550 2963 881 3178 
Q 1213 3394 1622 3394 
Q 1922 3394 2156 3267 
Q 2391 3141 2538 2938 
L 2538 4581 
L 3097 4581 
L 3097 0 
L 2575 0 
z
M 797 1656 
Q 797 1019 1065 703 
Q 1334 388 1700 388 
Q 2069 388 2326 689 
Q 2584 991 2584 1609 
Q 2584 2291 2321 2609 
Q 2059 2928 1675 2928 
Q 1300 2928 1048 2622 
Q 797 2316 797 1656 
z
" transform="scale(0.015625)"/>
       <path id="ArialMT-25" d="M 372 3481 
Q 372 3972 619 4315 
Q 866 4659 1334 4659 
Q 1766 4659 2048 4351 
Q 2331 4044 2331 3447 
Q 2331 2866 2045 2552 
Q 1759 2238 1341 2238 
Q 925 2238 648 2547 
Q 372 2856 372 3481 
z
M 1350 4272 
Q 1141 4272 1002 4090 
Q 863 3909 863 3425 
Q 863 2984 1003 2804 
Q 1144 2625 1350 2625 
Q 1563 2625 1702 2806 
Q 1841 2988 1841 3469 
Q 1841 3913 1700 4092 
Q 1559 4272 1350 4272 
z
M 1353 -169 
L 3859 4659 
L 4316 4659 
L 1819 -169 
L 1353 -169 
z
M 3334 1075 
Q 3334 1569 3581 1911 
Q 3828 2253 4300 2253 
Q 4731 2253 5014 1945 
Q 5297 1638 5297 1041 
Q 5297 459 5011 145 
Q 4725 -169 4303 -169 
Q 3888 -169 3611 142 
Q 3334 453 3334 1075 
z
M 4316 1866 
Q 4103 1866 3964 1684 
Q 3825 1503 3825 1019 
Q 3825 581 3965 400 
Q 4106 219 4313 219 
Q 4528 219 4667 400 
Q 4806 581 4806 1063 
Q 4806 1506 4665 1686 
Q 4525 1866 4316 1866 
z
" transform="scale(0.015625)"/>
      </defs>
      <use xlink:href="#ArialMT-59"/>
      <use xlink:href="#ArialMT-69" x="62.949219"/>
      <use xlink:href="#ArialMT-65" x="85.166016"/>
      <use xlink:href="#ArialMT-6c" x="140.78125"/>
      <use xlink:href="#ArialMT-64" x="162.998047"/>
      <use xlink:href="#ArialMT-20" x="218.613281"/>
      <use xlink:href="#ArialMT-25" x="246.396484"/>
     </g>
    </g>
   </g>
   <g id="LineCollection_1">
    <path d="M 120.96 604.8 
L 120.96 604.8 
" clip-path="url(#p61ac712140)" style="fill: none; stroke: #1f77b4; stroke-width: 1.5"/>
    <path d="M 259.2 602.633426 
L 259.2 586.670418 
" clip-path="url(#p61ac712140)" style="fill: none; stroke: #1f77b4; stroke-width: 1.5"/>
    <path d="M 397.44 601.887756 
L 397.44 582.502571 
" clip-path="url(#p61ac712140)" style="fill: none; stroke: #1f77b4; stroke-width: 1.5"/>
    <path d="M 535.68 597.965553 
L 535.68 578.87724 
" clip-path="url(#p61ac712140)" style="fill: none; stroke: #1f77b4; stroke-width: 1.5"/>
    <path d="M 673.92 596.274519 
L 673.92 574.894834 
" clip-path="url(#p61ac712140)" style="fill: none; stroke: #1f77b4; stroke-width: 1.5"/>
    <path d="M 812.16 593.857875 
L 812.16 571.601151 
" clip-path="url(#p61ac712140)" style="fill: none; stroke: #1f77b4; stroke-width: 1.5"/>
   </g>
   <g id="LineCollection_2">
    <path d="M 120.96 604.8 
L 120.96 604.8 
" clip-path="url(#p61ac712140)" style="fill: none; stroke: #ff7f0e; stroke-width: 1.5"/>
    <path d="M 259.2 571.767519 
L 259.2 556.776494 
" clip-path="url(#p61ac712140)" style="fill: none; stroke: #ff7f0e; stroke-width: 1.5"/>
    <path d="M 397.44 559.794567 
L 397.44 539.932605 
" clip-path="url(#p61ac712140)" style="fill: none; stroke: #ff7f0e; stroke-width: 1.5"/>
    <path d="M 535.68 549.57316 
L 535.68 524.448513 
" clip-path="url(#p61ac712140)" style="fill: none; stroke: #ff7f0e; stroke-width: 1.5"/>
    <path d="M 673.92 543.035625 
L 673.92 511.82493 
" clip-path="url(#p61ac712140)" style="fill: none; stroke: #ff7f0e; stroke-width: 1.5"/>
    <path d="M 812.16 538.068784 
L 812.16 504.917862 
" clip-path="url(#p61ac712140)" style="fill: none; stroke: #ff7f0e; stroke-width: 1.5"/>
   </g>
   <g id="LineCollection_3">
    <path d="M 120.96 604.8 
L 120.96 604.8 
" clip-path="url(#p61ac712140)" style="fill: none; stroke: #2ca02c; stroke-width: 1.5"/>
    <path d="M 259.2 502.414653 
L 259.2 469.569579 
" clip-path="url(#p61ac712140)" style="fill: none; stroke: #2ca02c; stroke-width: 1.5"/>
    <path d="M 397.44 484.753872 
L 397.44 452.14103 
" clip-path="url(#p61ac712140)" style="fill: none; stroke: #2ca02c; stroke-width: 1.5"/>
    <path d="M 535.68 475.60237 
L 535.68 441.291935 
" clip-path="url(#p61ac712140)" style="fill: none; stroke: #2ca02c; stroke-width: 1.5"/>
    <path d="M 673.92 470.231761 
L 673.92 430.479478 
" clip-path="url(#p61ac712140)" style="fill: none; stroke: #2ca02c; stroke-width: 1.5"/>
    <path d="M 812.16 462.208188 
L 812.16 423.732073 
" clip-path="url(#p61ac712140)" style="fill: none; stroke: #2ca02c; stroke-width: 1.5"/>
   </g>
   <g id="LineCollection_4">
    <path d="M 120.96 604.8 
L 120.96 604.8 
" clip-path="url(#p61ac712140)" style="fill: none; stroke: #d62728; stroke-width: 1.5"/>
    <path d="M 259.2 509.251684 
L 259.2 480.710936 
" clip-path="url(#p61ac712140)" style="fill: none; stroke: #d62728; stroke-width: 1.5"/>
    <path d="M 397.44 327.888636 
L 397.44 287.759609 
" clip-path="url(#p61ac712140)" style="fill: none; stroke: #d62728; stroke-width: 1.5"/>
    <path d="M 535.68 205.44752 
L 535.68 171.981125 
" clip-path="url(#p61ac712140)" style="fill: none; stroke: #d62728; stroke-width: 1.5"/>
    <path d="M 673.92 154.998167 
L 673.92 144.967306 
" clip-path="url(#p61ac712140)" style="fill: none; stroke: #d62728; stroke-width: 1.5"/>
    <path d="M 812.16 157.577534 
L 812.16 142.484422 
" clip-path="url(#p61ac712140)" style="fill: none; stroke: #d62728; stroke-width: 1.5"/>
   </g>
   <g id="line2d_13">
    <defs>
     <path id="mb999853f6f" d="M 0 2.5 
C 0.663008 2.5 1.29895 2.236584 1.767767 1.767767 
C 2.236584 1.29895 2.5 0.663008 2.5 0 
C 2.5 -0.663008 2.236584 -1.29895 1.767767 -1.767767 
C 1.29895 -2.236584 0.663008 -2.5 0 -2.5 
C -0.663008 -2.5 -1.29895 -2.236584 -1.767767 -1.767767 
C -2.236584 -1.29895 -2.5 -0.663008 -2.5 0 
C -2.5 0.663008 -2.236584 1.29895 -1.767767 1.767767 
C -1.29895 2.236584 -0.663008 2.5 0 2.5 
z
" style="stroke: #1f77b4"/>
    </defs>
    <g clip-path="url(#p61ac712140)">
     <use xlink:href="#mb999853f6f" x="120.96" y="604.8" style="fill: #1f77b4; stroke: #1f77b4"/>
     <use xlink:href="#mb999853f6f" x="259.2" y="594.651922" style="fill: #1f77b4; stroke: #1f77b4"/>
     <use xlink:href="#mb999853f6f" x="397.44" y="592.195163" style="fill: #1f77b4; stroke: #1f77b4"/>
     <use xlink:href="#mb999853f6f" x="535.68" y="588.421397" style="fill: #1f77b4; stroke: #1f77b4"/>
     <use xlink:href="#mb999853f6f" x="673.92" y="585.584676" style="fill: #1f77b4; stroke: #1f77b4"/>
     <use xlink:href="#mb999853f6f" x="812.16" y="582.729513" style="fill: #1f77b4; stroke: #1f77b4"/>
    </g>
   </g>
   <g id="line2d_14">
    <defs>
     <path id="m28a741711b" d="M 0 2.5 
C 0.663008 2.5 1.29895 2.236584 1.767767 1.767767 
C 2.236584 1.29895 2.5 0.663008 2.5 0 
C 2.5 -0.663008 2.236584 -1.29895 1.767767 -1.767767 
C 1.29895 -2.236584 0.663008 -2.5 0 -2.5 
C -0.663008 -2.5 -1.29895 -2.236584 -1.767767 -1.767767 
C -2.236584 -1.29895 -2.5 -0.663008 -2.5 0 
C -2.5 0.663008 -2.236584 1.29895 -1.767767 1.767767 
C -1.29895 2.236584 -0.663008 2.5 0 2.5 
z
" style="stroke: #ff7f0e"/>
    </defs>
    <g clip-path="url(#p61ac712140)">
     <use xlink:href="#m28a741711b" x="120.96" y="604.8" style="fill: #ff7f0e; stroke: #ff7f0e"/>
     <use xlink:href="#m28a741711b" x="259.2" y="564.272007" style="fill: #ff7f0e; stroke: #ff7f0e"/>
     <use xlink:href="#m28a741711b" x="397.44" y="549.863586" style="fill: #ff7f0e; stroke: #ff7f0e"/>
     <use xlink:href="#m28a741711b" x="535.68" y="537.010836" style="fill: #ff7f0e; stroke: #ff7f0e"/>
     <use xlink:href="#m28a741711b" x="673.92" y="527.430277" style="fill: #ff7f0e; stroke: #ff7f0e"/>
     <use xlink:href="#m28a741711b" x="812.16" y="521.493323" style="fill: #ff7f0e; stroke: #ff7f0e"/>
    </g>
   </g>
   <g id="line2d_15">
    <defs>
     <path id="md9b1472d3b" d="M 0 2.5 
C 0.663008 2.5 1.29895 2.236584 1.767767 1.767767 
C 2.236584 1.29895 2.5 0.663008 2.5 0 
C 2.5 -0.663008 2.236584 -1.29895 1.767767 -1.767767 
C 1.29895 -2.236584 0.663008 -2.5 0 -2.5 
C -0.663008 -2.5 -1.29895 -2.236584 -1.767767 -1.767767 
C -2.236584 -1.29895 -2.5 -0.663008 -2.5 0 
C -2.5 0.663008 -2.236584 1.29895 -1.767767 1.767767 
C -1.29895 2.236584 -0.663008 2.5 0 2.5 
z
" style="stroke: #2ca02c"/>
    </defs>
    <g clip-path="url(#p61ac712140)">
     <use xlink:href="#md9b1472d3b" x="120.96" y="604.8" style="fill: #2ca02c; stroke: #2ca02c"/>
     <use xlink:href="#md9b1472d3b" x="259.2" y="485.992116" style="fill: #2ca02c; stroke: #2ca02c"/>
     <use xlink:href="#md9b1472d3b" x="397.44" y="468.447451" style="fill: #2ca02c; stroke: #2ca02c"/>
     <use xlink:href="#md9b1472d3b" x="535.68" y="458.447152" style="fill: #2ca02c; stroke: #2ca02c"/>
     <use xlink:href="#md9b1472d3b" x="673.92" y="450.35562" style="fill: #2ca02c; stroke: #2ca02c"/>
     <use xlink:href="#md9b1472d3b" x="812.16" y="442.97013" style="fill: #2ca02c; stroke: #2ca02c"/>
    </g>
   </g>
   <g id="line2d_16">
    <defs>
     <path id="m97df30fd95" d="M 0 2.5 
C 0.663008 2.5 1.29895 2.236584 1.767767 1.767767 
C 2.236584 1.29895 2.5 0.663008 2.5 0 
C 2.5 -0.663008 2.236584 -1.29895 1.767767 -1.767767 
C 1.29895 -2.236584 0.663008 -2.5 0 -2.5 
C -0.663008 -2.5 -1.29895 -2.236584 -1.767767 -1.767767 
C -2.236584 -1.29895 -2.5 -0.663008 -2.5 0 
C -2.5 0.663008 -2.236584 1.29895 -1.767767 1.767767 
C -1.29895 2.236584 -0.663008 2.5 0 2.5 
z
" style="stroke: #d62728"/>
    </defs>
    <g clip-path="url(#p61ac712140)">
     <use xlink:href="#m97df30fd95" x="120.96" y="604.8" style="fill: #d62728; stroke: #d62728"/>
     <use xlink:href="#m97df30fd95" x="259.2" y="494.98131" style="fill: #d62728; stroke: #d62728"/>
     <use xlink:href="#m97df30fd95" x="397.44" y="307.824123" style="fill: #d62728; stroke: #d62728"/>
     <use xlink:href="#m97df30fd95" x="535.68" y="188.714323" style="fill: #d62728; stroke: #d62728"/>
     <use xlink:href="#m97df30fd95" x="673.92" y="149.982736" style="fill: #d62728; stroke: #d62728"/>
     <use xlink:href="#m97df30fd95" x="812.16" y="150.030978" style="fill: #d62728; stroke: #d62728"/>
    </g>
   </g>
   <g id="patch_3">
    <path d="M 86.4 604.8 
L 86.4 43.2 
" style="fill: none; stroke: #000000; stroke-width: 0.8; stroke-linejoin: miter; stroke-linecap: square"/>
   </g>
   <g id="patch_4">
    <path d="M 846.72 604.8 
L 846.72 43.2 
" style="fill: none; stroke: #000000; stroke-width: 0.8; stroke-linejoin: miter; stroke-linecap: square"/>
   </g>
   <g id="patch_5">
    <path d="M 86.4 604.8 
L 846.72 604.8 
" style="fill: none; stroke: #000000; stroke-width: 0.8; stroke-linejoin: miter; stroke-linecap: square"/>
   </g>
   <g id="patch_6">
    <path d="M 86.4 43.2 
L 846.72 43.2 
" style="fill: none; stroke: #000000; stroke-width: 0.8; stroke-linejoin: miter; stroke-linecap: square"/>
   </g>
   <g id="legend_1">
    <g id="patch_7">
     <path d="M 651.8025 147.7175 
L 835.52 147.7175 
Q 838.72 147.7175 838.72 144.5175 
L 838.72 54.4 
Q 838.72 51.2 835.52 51.2 
L 651.8025 51.2 
Q 648.6025 51.2 648.6025 54.4 
L 648.6025 144.5175 
Q 648.6025 147.7175 651.8025 147.7175 
z
" style="fill: #ffffff; opacity: 0.8; stroke: #cccccc; stroke-linejoin: miter"/>
    </g>
    <g id="LineCollection_5">
     <path d="M 671.0025 71.6475 
L 671.0025 55.6475 
" style="fill: none; stroke: #1f77b4; stroke-width: 1.5"/>
    </g>
    <g id="line2d_17"/>
    <g id="line2d_18">
     <g>
      <use xlink:href="#mb999853f6f" x="671.0025" y="63.6475" style="fill: #1f77b4; stroke: #1f77b4"/>
     </g>
    </g>
    <g id="text_15">
     <!-- PCy3_yield -->
     <g transform="translate(699.8025 69.2475)scale(0.16 -0.16)">
      <defs>
       <path id="ArialMT-50" d="M 494 0 
L 494 4581 
L 2222 4581 
Q 2678 4581 2919 4538 
Q 3256 4481 3484 4323 
Q 3713 4166 3852 3881 
Q 3991 3597 3991 3256 
Q 3991 2672 3619 2267 
Q 3247 1863 2275 1863 
L 1100 1863 
L 1100 0 
L 494 0 
z
M 1100 2403 
L 2284 2403 
Q 2872 2403 3119 2622 
Q 3366 2841 3366 3238 
Q 3366 3525 3220 3729 
Q 3075 3934 2838 4000 
Q 2684 4041 2272 4041 
L 1100 4041 
L 1100 2403 
z
" transform="scale(0.015625)"/>
       <path id="ArialMT-43" d="M 3763 1606 
L 4369 1453 
Q 4178 706 3683 314 
Q 3188 -78 2472 -78 
Q 1731 -78 1267 223 
Q 803 525 561 1097 
Q 319 1669 319 2325 
Q 319 3041 592 3573 
Q 866 4106 1370 4382 
Q 1875 4659 2481 4659 
Q 3169 4659 3637 4309 
Q 4106 3959 4291 3325 
L 3694 3184 
Q 3534 3684 3231 3912 
Q 2928 4141 2469 4141 
Q 1941 4141 1586 3887 
Q 1231 3634 1087 3207 
Q 944 2781 944 2328 
Q 944 1744 1114 1308 
Q 1284 872 1643 656 
Q 2003 441 2422 441 
Q 2931 441 3284 734 
Q 3638 1028 3763 1606 
z
" transform="scale(0.015625)"/>
       <path id="ArialMT-79" d="M 397 -1278 
L 334 -750 
Q 519 -800 656 -800 
Q 844 -800 956 -737 
Q 1069 -675 1141 -563 
Q 1194 -478 1313 -144 
Q 1328 -97 1363 -6 
L 103 3319 
L 709 3319 
L 1400 1397 
Q 1534 1031 1641 628 
Q 1738 1016 1872 1384 
L 2581 3319 
L 3144 3319 
L 1881 -56 
Q 1678 -603 1566 -809 
Q 1416 -1088 1222 -1217 
Q 1028 -1347 759 -1347 
Q 597 -1347 397 -1278 
z
" transform="scale(0.015625)"/>
       <path id="ArialMT-33" d="M 269 1209 
L 831 1284 
Q 928 806 1161 595 
Q 1394 384 1728 384 
Q 2125 384 2398 659 
Q 2672 934 2672 1341 
Q 2672 1728 2419 1979 
Q 2166 2231 1775 2231 
Q 1616 2231 1378 2169 
L 1441 2663 
Q 1497 2656 1531 2656 
Q 1891 2656 2178 2843 
Q 2466 3031 2466 3422 
Q 2466 3731 2256 3934 
Q 2047 4138 1716 4138 
Q 1388 4138 1169 3931 
Q 950 3725 888 3313 
L 325 3413 
Q 428 3978 793 4289 
Q 1159 4600 1703 4600 
Q 2078 4600 2393 4439 
Q 2709 4278 2876 4000 
Q 3044 3722 3044 3409 
Q 3044 3113 2884 2869 
Q 2725 2625 2413 2481 
Q 2819 2388 3044 2092 
Q 3269 1797 3269 1353 
Q 3269 753 2831 336 
Q 2394 -81 1725 -81 
Q 1122 -81 723 278 
Q 325 638 269 1209 
z
" transform="scale(0.015625)"/>
       <path id="ArialMT-5f" d="M -97 -1272 
L -97 -866 
L 3631 -866 
L 3631 -1272 
L -97 -1272 
z
" transform="scale(0.015625)"/>
      </defs>
      <use xlink:href="#ArialMT-50"/>
      <use xlink:href="#ArialMT-43" x="66.699219"/>
      <use xlink:href="#ArialMT-79" x="138.916016"/>
      <use xlink:href="#ArialMT-33" x="188.916016"/>
      <use xlink:href="#ArialMT-5f" x="244.53125"/>
      <use xlink:href="#ArialMT-79" x="300.146484"/>
      <use xlink:href="#ArialMT-69" x="350.146484"/>
      <use xlink:href="#ArialMT-65" x="372.363281"/>
      <use xlink:href="#ArialMT-6c" x="427.978516"/>
      <use xlink:href="#ArialMT-64" x="450.195312"/>
     </g>
    </g>
    <g id="LineCollection_6">
     <path d="M 671.0025 94.515 
L 671.0025 78.515 
" style="fill: none; stroke: #ff7f0e; stroke-width: 1.5"/>
    </g>
    <g id="line2d_19"/>
    <g id="line2d_20">
     <g>
      <use xlink:href="#m28a741711b" x="671.0025" y="86.515" style="fill: #ff7f0e; stroke: #ff7f0e"/>
     </g>
    </g>
    <g id="text_16">
     <!-- PtBu3_yield -->
     <g transform="translate(699.8025 92.115)scale(0.16 -0.16)">
      <defs>
       <path id="ArialMT-42" d="M 469 0 
L 469 4581 
L 2188 4581 
Q 2713 4581 3030 4442 
Q 3347 4303 3526 4014 
Q 3706 3725 3706 3409 
Q 3706 3116 3547 2856 
Q 3388 2597 3066 2438 
Q 3481 2316 3704 2022 
Q 3928 1728 3928 1328 
Q 3928 1006 3792 729 
Q 3656 453 3456 303 
Q 3256 153 2954 76 
Q 2653 0 2216 0 
L 469 0 
z
M 1075 2656 
L 2066 2656 
Q 2469 2656 2644 2709 
Q 2875 2778 2992 2937 
Q 3109 3097 3109 3338 
Q 3109 3566 3000 3739 
Q 2891 3913 2687 3977 
Q 2484 4041 1991 4041 
L 1075 4041 
L 1075 2656 
z
M 1075 541 
L 2216 541 
Q 2509 541 2628 563 
Q 2838 600 2978 687 
Q 3119 775 3209 942 
Q 3300 1109 3300 1328 
Q 3300 1584 3169 1773 
Q 3038 1963 2805 2039 
Q 2572 2116 2134 2116 
L 1075 2116 
L 1075 541 
z
" transform="scale(0.015625)"/>
       <path id="ArialMT-75" d="M 2597 0 
L 2597 488 
Q 2209 -75 1544 -75 
Q 1250 -75 995 37 
Q 741 150 617 320 
Q 494 491 444 738 
Q 409 903 409 1263 
L 409 3319 
L 972 3319 
L 972 1478 
Q 972 1038 1006 884 
Q 1059 663 1231 536 
Q 1403 409 1656 409 
Q 1909 409 2131 539 
Q 2353 669 2445 892 
Q 2538 1116 2538 1541 
L 2538 3319 
L 3100 3319 
L 3100 0 
L 2597 0 
z
" transform="scale(0.015625)"/>
      </defs>
      <use xlink:href="#ArialMT-50"/>
      <use xlink:href="#ArialMT-74" x="66.699219"/>
      <use xlink:href="#ArialMT-42" x="94.482422"/>
      <use xlink:href="#ArialMT-75" x="161.181641"/>
      <use xlink:href="#ArialMT-33" x="216.796875"/>
      <use xlink:href="#ArialMT-5f" x="272.412109"/>
      <use xlink:href="#ArialMT-79" x="328.027344"/>
      <use xlink:href="#ArialMT-69" x="378.027344"/>
      <use xlink:href="#ArialMT-65" x="400.244141"/>
      <use xlink:href="#ArialMT-6c" x="455.859375"/>
      <use xlink:href="#ArialMT-64" x="478.076172"/>
     </g>
    </g>
    <g id="LineCollection_7">
     <path d="M 671.0025 117.53 
L 671.0025 101.53 
" style="fill: none; stroke: #2ca02c; stroke-width: 1.5"/>
    </g>
    <g id="line2d_21"/>
    <g id="line2d_22">
     <g>
      <use xlink:href="#md9b1472d3b" x="671.0025" y="109.53" style="fill: #2ca02c; stroke: #2ca02c"/>
     </g>
    </g>
    <g id="text_17">
     <!-- CyJohnPhos_yield -->
     <g transform="translate(699.8025 115.13)scale(0.16 -0.16)">
      <defs>
       <path id="ArialMT-4a" d="M 184 1300 
L 731 1375 
Q 753 850 928 656 
Q 1103 463 1413 463 
Q 1641 463 1806 567 
Q 1972 672 2034 851 
Q 2097 1031 2097 1425 
L 2097 4581 
L 2703 4581 
L 2703 1459 
Q 2703 884 2564 568 
Q 2425 253 2123 87 
Q 1822 -78 1416 -78 
Q 813 -78 492 269 
Q 172 616 184 1300 
z
" transform="scale(0.015625)"/>
       <path id="ArialMT-6f" d="M 213 1659 
Q 213 2581 725 3025 
Q 1153 3394 1769 3394 
Q 2453 3394 2887 2945 
Q 3322 2497 3322 1706 
Q 3322 1066 3130 698 
Q 2938 331 2570 128 
Q 2203 -75 1769 -75 
Q 1072 -75 642 372 
Q 213 819 213 1659 
z
M 791 1659 
Q 791 1022 1069 705 
Q 1347 388 1769 388 
Q 2188 388 2466 706 
Q 2744 1025 2744 1678 
Q 2744 2294 2464 2611 
Q 2184 2928 1769 2928 
Q 1347 2928 1069 2612 
Q 791 2297 791 1659 
z
" transform="scale(0.015625)"/>
       <path id="ArialMT-6e" d="M 422 0 
L 422 3319 
L 928 3319 
L 928 2847 
Q 1294 3394 1984 3394 
Q 2284 3394 2536 3286 
Q 2788 3178 2913 3003 
Q 3038 2828 3088 2588 
Q 3119 2431 3119 2041 
L 3119 0 
L 2556 0 
L 2556 2019 
Q 2556 2363 2490 2533 
Q 2425 2703 2258 2804 
Q 2091 2906 1866 2906 
Q 1506 2906 1245 2678 
Q 984 2450 984 1813 
L 984 0 
L 422 0 
z
" transform="scale(0.015625)"/>
       <path id="ArialMT-73" d="M 197 991 
L 753 1078 
Q 800 744 1014 566 
Q 1228 388 1613 388 
Q 2000 388 2187 545 
Q 2375 703 2375 916 
Q 2375 1106 2209 1216 
Q 2094 1291 1634 1406 
Q 1016 1563 777 1677 
Q 538 1791 414 1992 
Q 291 2194 291 2438 
Q 291 2659 392 2848 
Q 494 3038 669 3163 
Q 800 3259 1026 3326 
Q 1253 3394 1513 3394 
Q 1903 3394 2198 3281 
Q 2494 3169 2634 2976 
Q 2775 2784 2828 2463 
L 2278 2388 
Q 2241 2644 2061 2787 
Q 1881 2931 1553 2931 
Q 1166 2931 1000 2803 
Q 834 2675 834 2503 
Q 834 2394 903 2306 
Q 972 2216 1119 2156 
Q 1203 2125 1616 2013 
Q 2213 1853 2448 1751 
Q 2684 1650 2818 1456 
Q 2953 1263 2953 975 
Q 2953 694 2789 445 
Q 2625 197 2315 61 
Q 2006 -75 1616 -75 
Q 969 -75 630 194 
Q 291 463 197 991 
z
" transform="scale(0.015625)"/>
      </defs>
      <use xlink:href="#ArialMT-43"/>
      <use xlink:href="#ArialMT-79" x="72.216797"/>
      <use xlink:href="#ArialMT-4a" x="122.216797"/>
      <use xlink:href="#ArialMT-6f" x="172.216797"/>
      <use xlink:href="#ArialMT-68" x="227.832031"/>
      <use xlink:href="#ArialMT-6e" x="283.447266"/>
      <use xlink:href="#ArialMT-50" x="339.0625"/>
      <use xlink:href="#ArialMT-68" x="405.761719"/>
      <use xlink:href="#ArialMT-6f" x="461.376953"/>
      <use xlink:href="#ArialMT-73" x="516.992188"/>
      <use xlink:href="#ArialMT-5f" x="566.992188"/>
      <use xlink:href="#ArialMT-79" x="622.607422"/>
      <use xlink:href="#ArialMT-69" x="672.607422"/>
      <use xlink:href="#ArialMT-65" x="694.824219"/>
      <use xlink:href="#ArialMT-6c" x="750.439453"/>
      <use xlink:href="#ArialMT-64" x="772.65625"/>
     </g>
    </g>
    <g id="LineCollection_8">
     <path d="M 671.0025 140.35 
L 671.0025 124.35 
" style="fill: none; stroke: #d62728; stroke-width: 1.5"/>
    </g>
    <g id="line2d_23"/>
    <g id="line2d_24">
     <g>
      <use xlink:href="#m97df30fd95" x="671.0025" y="132.35" style="fill: #d62728; stroke: #d62728"/>
     </g>
    </g>
    <g id="text_18">
     <!-- JohnPhos_yield -->
     <g transform="translate(699.8025 137.95)scale(0.16 -0.16)">
      <use xlink:href="#ArialMT-4a"/>
      <use xlink:href="#ArialMT-6f" x="50"/>
      <use xlink:href="#ArialMT-68" x="105.615234"/>
      <use xlink:href="#ArialMT-6e" x="161.230469"/>
      <use xlink:href="#ArialMT-50" x="216.845703"/>
      <use xlink:href="#ArialMT-68" x="283.544922"/>
      <use xlink:href="#ArialMT-6f" x="339.160156"/>
      <use xlink:href="#ArialMT-73" x="394.775391"/>
      <use xlink:href="#ArialMT-5f" x="444.775391"/>
      <use xlink:href="#ArialMT-79" x="500.390625"/>
      <use xlink:href="#ArialMT-69" x="550.390625"/>
      <use xlink:href="#ArialMT-65" x="572.607422"/>
      <use xlink:href="#ArialMT-6c" x="628.222656"/>
      <use xlink:href="#ArialMT-64" x="650.439453"/>
     </g>
    </g>
   </g>
  </g>
 </g>
 <defs>
  <clipPath id="p61ac712140">
   <rect x="86.4" y="43.2" width="760.32" height="561.6"/>
  </clipPath>
 </defs>
</svg>
