<?xml version="1.0" encoding="utf-8" standalone="no"?>
<!DOCTYPE svg PUBLIC "-//W3C//DTD SVG 1.1//EN"
  "http://www.w3.org/Graphics/SVG/1.1/DTD/svg11.dtd">
<svg xmlns:xlink="http://www.w3.org/1999/xlink" width="1080pt" height="720pt" viewBox="0 0 1080 720" xmlns="http://www.w3.org/2000/svg" version="1.1">
 <metadata>
  <rdf:RDF xmlns:dc="http://purl.org/dc/elements/1.1/" xmlns:cc="http://creativecommons.org/ns#" xmlns:rdf="http://www.w3.org/1999/02/22-rdf-syntax-ns#">
   <cc:Work>
    <dc:type rdf:resource="http://purl.org/dc/dcmitype/StillImage"/>
    <dc:date>2024-08-06T16:38:26.647521</dc:date>
    <dc:format>image/svg+xml</dc:format>
    <dc:creator>
     <cc:Agent>
      <dc:title>Matplotlib v3.5.1, https://matplotlib.org/</dc:title>
     </cc:Agent>
    </dc:creator>
   </cc:Work>
  </rdf:RDF>
 </metadata>
 <defs>
  <style type="text/css">*{stroke-linejoin: round; stroke-linecap: butt}</style>
 </defs>
 <g id="figure_1">
  <g id="patch_1">
   <path d="M 0 720 
L 1080 720 
L 1080 0 
L 0 0 
z
" style="fill: #ffffff"/>
  </g>
  <g id="axes_1">
   <g id="patch_2">
    <path d="M 108 540 
L 1058.4 540 
L 1058.4 36 
L 108 36 
z
" style="fill: #ffffff"/>
   </g>
   <g id="patch_3">
    <path d="M 151.2 540 
L 180.654545 540 
L 180.654545 503.46 
L 151.2 503.46 
z
" clip-path="url(#p31a499bbdd)" style="fill: #1f77b4"/>
   </g>
   <g id="patch_4">
    <path d="M 200.290909 540 
L 229.745455 540 
L 229.745455 483.048 
L 200.290909 483.048 
z
" clip-path="url(#p31a499bbdd)" style="fill: #1f77b4"/>
   </g>
   <g id="patch_5">
    <path d="M 249.381818 540 
L 278.836364 540 
L 278.836364 457.848 
L 249.381818 457.848 
z
" clip-path="url(#p31a499bbdd)" style="fill: #1f77b4"/>
   </g>
   <g id="patch_6">
    <path d="M 298.472727 540 
L 327.927273 540 
L 327.927273 470.952 
L 298.472727 470.952 
z
" clip-path="url(#p31a499bbdd)" style="fill: #1f77b4"/>
   </g>
   <g id="patch_7">
    <path d="M 347.563636 540 
L 377.018182 540 
L 377.018182 441.468 
L 347.563636 441.468 
z
" clip-path="url(#p31a499bbdd)" style="fill: #1f77b4"/>
   </g>
   <g id="patch_8">
    <path d="M 396.654545 540 
L 426.109091 540 
L 426.109091 396.612 
L 396.654545 396.612 
z
" clip-path="url(#p31a499bbdd)" style="fill: #1f77b4"/>
   </g>
   <g id="patch_9">
    <path d="M 445.745455 540 
L 475.2 540 
L 475.2 518.709233 
L 445.745455 518.709233 
z
" clip-path="url(#p31a499bbdd)" style="fill: #ff7f0e"/>
   </g>
   <g id="patch_10">
    <path d="M 494.836364 540 
L 524.290909 540 
L 524.290909 502.085229 
L 494.836364 502.085229 
z
" clip-path="url(#p31a499bbdd)" style="fill: #ff7f0e"/>
   </g>
   <g id="patch_11">
    <path d="M 543.927273 540 
L 573.381818 540 
L 573.381818 154.023833 
L 543.927273 154.023833 
z
" clip-path="url(#p31a499bbdd)" style="fill: #ff7f0e"/>
   </g>
   <g id="patch_12">
    <path d="M 593.018182 540 
L 622.472727 540 
L 622.472727 525.450055 
L 593.018182 525.450055 
z
" clip-path="url(#p31a499bbdd)" style="fill: #ff7f0e"/>
   </g>
   <g id="patch_13">
    <path d="M 642.109091 540 
L 671.563636 540 
L 671.563636 492.240085 
L 642.109091 492.240085 
z
" clip-path="url(#p31a499bbdd)" style="fill: #ff7f0e"/>
   </g>
   <g id="patch_14">
    <path d="M 691.2 540 
L 720.654545 540 
L 720.654545 509.601009 
L 691.2 509.601009 
z
" clip-path="url(#p31a499bbdd)" style="fill: #ff7f0e"/>
   </g>
   <g id="patch_15">
    <path d="M 740.290909 540 
L 769.745455 540 
L 769.745455 528.973651 
L 740.290909 528.973651 
z
" clip-path="url(#p31a499bbdd)" style="fill: #2ca02c"/>
   </g>
   <g id="patch_16">
    <path d="M 789.381818 540 
L 818.836364 540 
L 818.836364 518.446472 
L 789.381818 518.446472 
z
" clip-path="url(#p31a499bbdd)" style="fill: #2ca02c"/>
   </g>
   <g id="patch_17">
    <path d="M 838.472727 540 
L 867.927273 540 
L 867.927273 174.177305 
L 838.472727 174.177305 
z
" clip-path="url(#p31a499bbdd)" style="fill: #2ca02c"/>
   </g>
   <g id="patch_18">
    <path d="M 887.563636 540 
L 917.018182 540 
L 917.018182 537.487243 
L 887.563636 537.487243 
z
" clip-path="url(#p31a499bbdd)" style="fill: #2ca02c"/>
   </g>
   <g id="patch_19">
    <path d="M 936.654545 540 
L 966.109091 540 
L 966.109091 532.016373 
L 936.654545 532.016373 
z
" clip-path="url(#p31a499bbdd)" style="fill: #2ca02c"/>
   </g>
   <g id="patch_20">
    <path d="M 985.745455 540 
L 1015.2 540 
L 1015.2 537.487243 
L 985.745455 537.487243 
z
" clip-path="url(#p31a499bbdd)" style="fill: #2ca02c"/>
   </g>
   <g id="matplotlib.axis_1">
    <g id="xtick_1">
     <g id="line2d_1">
      <defs>
       <path id="m9c6cf16ff4" d="M 0 0 
L 0 3.5 
" style="stroke: #000000; stroke-width: 0.8"/>
      </defs>
      <g>
       <use xlink:href="#m9c6cf16ff4" x="178.2" y="540" style="stroke: #000000; stroke-width: 0.8"/>
      </g>
     </g>
     <g id="text_1">
      <!-- no phosphine -->
      <g transform="translate(169.761967 642.767864)rotate(-75)scale(0.16 -0.16)">
       <defs>
        <path id="ArialMT-6e" d="M 422 0 
L 422 3319 
L 928 3319 
L 928 2847 
Q 1294 3394 1984 3394 
Q 2284 3394 2536 3286 
Q 2788 3178 2913 3003 
Q 3038 2828 3088 2588 
Q 3119 2431 3119 2041 
L 3119 0 
L 2556 0 
L 2556 2019 
Q 2556 2363 2490 2533 
Q 2425 2703 2258 2804 
Q 2091 2906 1866 2906 
Q 1506 2906 1245 2678 
Q 984 2450 984 1813 
L 984 0 
L 422 0 
z
" transform="scale(0.015625)"/>
        <path id="ArialMT-6f" d="M 213 1659 
Q 213 2581 725 3025 
Q 1153 3394 1769 3394 
Q 2453 3394 2887 2945 
Q 3322 2497 3322 1706 
Q 3322 1066 3130 698 
Q 2938 331 2570 128 
Q 2203 -75 1769 -75 
Q 1072 -75 642 372 
Q 213 819 213 1659 
z
M 791 1659 
Q 791 1022 1069 705 
Q 1347 388 1769 388 
Q 2188 388 2466 706 
Q 2744 1025 2744 1678 
Q 2744 2294 2464 2611 
Q 2184 2928 1769 2928 
Q 1347 2928 1069 2612 
Q 791 2297 791 1659 
z
" transform="scale(0.015625)"/>
        <path id="ArialMT-20" transform="scale(0.015625)"/>
        <path id="ArialMT-70" d="M 422 -1272 
L 422 3319 
L 934 3319 
L 934 2888 
Q 1116 3141 1344 3267 
Q 1572 3394 1897 3394 
Q 2322 3394 2647 3175 
Q 2972 2956 3137 2557 
Q 3303 2159 3303 1684 
Q 3303 1175 3120 767 
Q 2938 359 2589 142 
Q 2241 -75 1856 -75 
Q 1575 -75 1351 44 
Q 1128 163 984 344 
L 984 -1272 
L 422 -1272 
z
M 931 1641 
Q 931 1000 1190 694 
Q 1450 388 1819 388 
Q 2194 388 2461 705 
Q 2728 1022 2728 1688 
Q 2728 2322 2467 2637 
Q 2206 2953 1844 2953 
Q 1484 2953 1207 2617 
Q 931 2281 931 1641 
z
" transform="scale(0.015625)"/>
        <path id="ArialMT-68" d="M 422 0 
L 422 4581 
L 984 4581 
L 984 2938 
Q 1378 3394 1978 3394 
Q 2347 3394 2619 3248 
Q 2891 3103 3008 2847 
Q 3125 2591 3125 2103 
L 3125 0 
L 2563 0 
L 2563 2103 
Q 2563 2525 2380 2717 
Q 2197 2909 1863 2909 
Q 1613 2909 1392 2779 
Q 1172 2650 1078 2428 
Q 984 2206 984 1816 
L 984 0 
L 422 0 
z
" transform="scale(0.015625)"/>
        <path id="ArialMT-73" d="M 197 991 
L 753 1078 
Q 800 744 1014 566 
Q 1228 388 1613 388 
Q 2000 388 2187 545 
Q 2375 703 2375 916 
Q 2375 1106 2209 1216 
Q 2094 1291 1634 1406 
Q 1016 1563 777 1677 
Q 538 1791 414 1992 
Q 291 2194 291 2438 
Q 291 2659 392 2848 
Q 494 3038 669 3163 
Q 800 3259 1026 3326 
Q 1253 3394 1513 3394 
Q 1903 3394 2198 3281 
Q 2494 3169 2634 2976 
Q 2775 2784 2828 2463 
L 2278 2388 
Q 2241 2644 2061 2787 
Q 1881 2931 1553 2931 
Q 1166 2931 1000 2803 
Q 834 2675 834 2503 
Q 834 2394 903 2306 
Q 972 2216 1119 2156 
Q 1203 2125 1616 2013 
Q 2213 1853 2448 1751 
Q 2684 1650 2818 1456 
Q 2953 1263 2953 975 
Q 2953 694 2789 445 
Q 2625 197 2315 61 
Q 2006 -75 1616 -75 
Q 969 -75 630 194 
Q 291 463 197 991 
z
" transform="scale(0.015625)"/>
        <path id="ArialMT-69" d="M 425 3934 
L 425 4581 
L 988 4581 
L 988 3934 
L 425 3934 
z
M 425 0 
L 425 3319 
L 988 3319 
L 988 0 
L 425 0 
z
" transform="scale(0.015625)"/>
        <path id="ArialMT-65" d="M 2694 1069 
L 3275 997 
Q 3138 488 2766 206 
Q 2394 -75 1816 -75 
Q 1088 -75 661 373 
Q 234 822 234 1631 
Q 234 2469 665 2931 
Q 1097 3394 1784 3394 
Q 2450 3394 2872 2941 
Q 3294 2488 3294 1666 
Q 3294 1616 3291 1516 
L 816 1516 
Q 847 969 1125 678 
Q 1403 388 1819 388 
Q 2128 388 2347 550 
Q 2566 713 2694 1069 
z
M 847 1978 
L 2700 1978 
Q 2663 2397 2488 2606 
Q 2219 2931 1791 2931 
Q 1403 2931 1139 2672 
Q 875 2413 847 1978 
z
" transform="scale(0.015625)"/>
       </defs>
       <use xlink:href="#ArialMT-6e"/>
       <use xlink:href="#ArialMT-6f" x="55.615234"/>
       <use xlink:href="#ArialMT-20" x="111.230469"/>
       <use xlink:href="#ArialMT-70" x="139.013672"/>
       <use xlink:href="#ArialMT-68" x="194.628906"/>
       <use xlink:href="#ArialMT-6f" x="250.244141"/>
       <use xlink:href="#ArialMT-73" x="305.859375"/>
       <use xlink:href="#ArialMT-70" x="355.859375"/>
       <use xlink:href="#ArialMT-68" x="411.474609"/>
       <use xlink:href="#ArialMT-69" x="467.089844"/>
       <use xlink:href="#ArialMT-6e" x="489.306641"/>
       <use xlink:href="#ArialMT-65" x="544.921875"/>
      </g>
     </g>
    </g>
    <g id="xtick_2">
     <g id="line2d_2">
      <g>
       <use xlink:href="#m9c6cf16ff4" x="227.290909" y="540" style="stroke: #000000; stroke-width: 0.8"/>
      </g>
     </g>
     <g id="text_2">
      <!-- PPh3 -->
      <g transform="translate(226.221131 587.770462)rotate(-75)scale(0.16 -0.16)">
       <defs>
        <path id="ArialMT-50" d="M 494 0 
L 494 4581 
L 2222 4581 
Q 2678 4581 2919 4538 
Q 3256 4481 3484 4323 
Q 3713 4166 3852 3881 
Q 3991 3597 3991 3256 
Q 3991 2672 3619 2267 
Q 3247 1863 2275 1863 
L 1100 1863 
L 1100 0 
L 494 0 
z
M 1100 2403 
L 2284 2403 
Q 2872 2403 3119 2622 
Q 3366 2841 3366 3238 
Q 3366 3525 3220 3729 
Q 3075 3934 2838 4000 
Q 2684 4041 2272 4041 
L 1100 4041 
L 1100 2403 
z
" transform="scale(0.015625)"/>
        <path id="ArialMT-33" d="M 269 1209 
L 831 1284 
Q 928 806 1161 595 
Q 1394 384 1728 384 
Q 2125 384 2398 659 
Q 2672 934 2672 1341 
Q 2672 1728 2419 1979 
Q 2166 2231 1775 2231 
Q 1616 2231 1378 2169 
L 1441 2663 
Q 1497 2656 1531 2656 
Q 1891 2656 2178 2843 
Q 2466 3031 2466 3422 
Q 2466 3731 2256 3934 
Q 2047 4138 1716 4138 
Q 1388 4138 1169 3931 
Q 950 3725 888 3313 
L 325 3413 
Q 428 3978 793 4289 
Q 1159 4600 1703 4600 
Q 2078 4600 2393 4439 
Q 2709 4278 2876 4000 
Q 3044 3722 3044 3409 
Q 3044 3113 2884 2869 
Q 2725 2625 2413 2481 
Q 2819 2388 3044 2092 
Q 3269 1797 3269 1353 
Q 3269 753 2831 336 
Q 2394 -81 1725 -81 
Q 1122 -81 723 278 
Q 325 638 269 1209 
z
" transform="scale(0.015625)"/>
       </defs>
       <use xlink:href="#ArialMT-50"/>
       <use xlink:href="#ArialMT-50" x="66.699219"/>
       <use xlink:href="#ArialMT-68" x="133.398438"/>
       <use xlink:href="#ArialMT-33" x="189.013672"/>
      </g>
     </g>
    </g>
    <g id="xtick_3">
     <g id="line2d_3">
      <g>
       <use xlink:href="#m9c6cf16ff4" x="276.381818" y="540" style="stroke: #000000; stroke-width: 0.8"/>
      </g>
     </g>
     <g id="text_3">
      <!-- PCy3 -->
      <g transform="translate(275.317604 587.806443)rotate(-75)scale(0.16 -0.16)">
       <defs>
        <path id="ArialMT-43" d="M 3763 1606 
L 4369 1453 
Q 4178 706 3683 314 
Q 3188 -78 2472 -78 
Q 1731 -78 1267 223 
Q 803 525 561 1097 
Q 319 1669 319 2325 
Q 319 3041 592 3573 
Q 866 4106 1370 4382 
Q 1875 4659 2481 4659 
Q 3169 4659 3637 4309 
Q 4106 3959 4291 3325 
L 3694 3184 
Q 3534 3684 3231 3912 
Q 2928 4141 2469 4141 
Q 1941 4141 1586 3887 
Q 1231 3634 1087 3207 
Q 944 2781 944 2328 
Q 944 1744 1114 1308 
Q 1284 872 1643 656 
Q 2003 441 2422 441 
Q 2931 441 3284 734 
Q 3638 1028 3763 1606 
z
" transform="scale(0.015625)"/>
        <path id="ArialMT-79" d="M 397 -1278 
L 334 -750 
Q 519 -800 656 -800 
Q 844 -800 956 -737 
Q 1069 -675 1141 -563 
Q 1194 -478 1313 -144 
Q 1328 -97 1363 -6 
L 103 3319 
L 709 3319 
L 1400 1397 
Q 1534 1031 1641 628 
Q 1738 1016 1872 1384 
L 2581 3319 
L 3144 3319 
L 1881 -56 
Q 1678 -603 1566 -809 
Q 1416 -1088 1222 -1217 
Q 1028 -1347 759 -1347 
Q 597 -1347 397 -1278 
z
" transform="scale(0.015625)"/>
       </defs>
       <use xlink:href="#ArialMT-50"/>
       <use xlink:href="#ArialMT-43" x="66.699219"/>
       <use xlink:href="#ArialMT-79" x="138.916016"/>
       <use xlink:href="#ArialMT-33" x="188.916016"/>
      </g>
     </g>
    </g>
    <g id="xtick_4">
     <g id="line2d_4">
      <g>
       <use xlink:href="#m9c6cf16ff4" x="325.472727" y="540" style="stroke: #000000; stroke-width: 0.8"/>
      </g>
     </g>
     <g id="text_4">
      <!-- PtBu3 -->
      <g transform="translate(323.827724 592.064002)rotate(-75)scale(0.16 -0.16)">
       <defs>
        <path id="ArialMT-74" d="M 1650 503 
L 1731 6 
Q 1494 -44 1306 -44 
Q 1000 -44 831 53 
Q 663 150 594 308 
Q 525 466 525 972 
L 525 2881 
L 113 2881 
L 113 3319 
L 525 3319 
L 525 4141 
L 1084 4478 
L 1084 3319 
L 1650 3319 
L 1650 2881 
L 1084 2881 
L 1084 941 
Q 1084 700 1114 631 
Q 1144 563 1211 522 
Q 1278 481 1403 481 
Q 1497 481 1650 503 
z
" transform="scale(0.015625)"/>
        <path id="ArialMT-42" d="M 469 0 
L 469 4581 
L 2188 4581 
Q 2713 4581 3030 4442 
Q 3347 4303 3526 4014 
Q 3706 3725 3706 3409 
Q 3706 3116 3547 2856 
Q 3388 2597 3066 2438 
Q 3481 2316 3704 2022 
Q 3928 1728 3928 1328 
Q 3928 1006 3792 729 
Q 3656 453 3456 303 
Q 3256 153 2954 76 
Q 2653 0 2216 0 
L 469 0 
z
M 1075 2656 
L 2066 2656 
Q 2469 2656 2644 2709 
Q 2875 2778 2992 2937 
Q 3109 3097 3109 3338 
Q 3109 3566 3000 3739 
Q 2891 3913 2687 3977 
Q 2484 4041 1991 4041 
L 1075 4041 
L 1075 2656 
z
M 1075 541 
L 2216 541 
Q 2509 541 2628 563 
Q 2838 600 2978 687 
Q 3119 775 3209 942 
Q 3300 1109 3300 1328 
Q 3300 1584 3169 1773 
Q 3038 1963 2805 2039 
Q 2572 2116 2134 2116 
L 1075 2116 
L 1075 541 
z
" transform="scale(0.015625)"/>
        <path id="ArialMT-75" d="M 2597 0 
L 2597 488 
Q 2209 -75 1544 -75 
Q 1250 -75 995 37 
Q 741 150 617 320 
Q 494 491 444 738 
Q 409 903 409 1263 
L 409 3319 
L 972 3319 
L 972 1478 
Q 972 1038 1006 884 
Q 1059 663 1231 536 
Q 1403 409 1656 409 
Q 1909 409 2131 539 
Q 2353 669 2445 892 
Q 2538 1116 2538 1541 
L 2538 3319 
L 3100 3319 
L 3100 0 
L 2597 0 
z
" transform="scale(0.015625)"/>
       </defs>
       <use xlink:href="#ArialMT-50"/>
       <use xlink:href="#ArialMT-74" x="66.699219"/>
       <use xlink:href="#ArialMT-42" x="94.482422"/>
       <use xlink:href="#ArialMT-75" x="161.181641"/>
       <use xlink:href="#ArialMT-33" x="216.796875"/>
      </g>
     </g>
    </g>
    <g id="xtick_5">
     <g id="line2d_5">
      <g>
       <use xlink:href="#m9c6cf16ff4" x="374.563636" y="540" style="stroke: #000000; stroke-width: 0.8"/>
      </g>
     </g>
     <g id="text_5">
      <!-- CyJohnPhos -->
      <g transform="translate(366.823184 637.638556)rotate(-75)scale(0.16 -0.16)">
       <defs>
        <path id="ArialMT-4a" d="M 184 1300 
L 731 1375 
Q 753 850 928 656 
Q 1103 463 1413 463 
Q 1641 463 1806 567 
Q 1972 672 2034 851 
Q 2097 1031 2097 1425 
L 2097 4581 
L 2703 4581 
L 2703 1459 
Q 2703 884 2564 568 
Q 2425 253 2123 87 
Q 1822 -78 1416 -78 
Q 813 -78 492 269 
Q 172 616 184 1300 
z
" transform="scale(0.015625)"/>
       </defs>
       <use xlink:href="#ArialMT-43"/>
       <use xlink:href="#ArialMT-79" x="72.216797"/>
       <use xlink:href="#ArialMT-4a" x="122.216797"/>
       <use xlink:href="#ArialMT-6f" x="172.216797"/>
       <use xlink:href="#ArialMT-68" x="227.832031"/>
       <use xlink:href="#ArialMT-6e" x="283.447266"/>
       <use xlink:href="#ArialMT-50" x="339.0625"/>
       <use xlink:href="#ArialMT-68" x="405.761719"/>
       <use xlink:href="#ArialMT-6f" x="461.376953"/>
       <use xlink:href="#ArialMT-73" x="516.992188"/>
      </g>
     </g>
    </g>
    <g id="xtick_6">
     <g id="line2d_6">
      <g>
       <use xlink:href="#m9c6cf16ff4" x="423.654545" y="540" style="stroke: #000000; stroke-width: 0.8"/>
      </g>
     </g>
     <g id="text_6">
      <!-- JohnPhos -->
      <g transform="translate(418.441075 618.699407)rotate(-75)scale(0.16 -0.16)">
       <use xlink:href="#ArialMT-4a"/>
       <use xlink:href="#ArialMT-6f" x="50"/>
       <use xlink:href="#ArialMT-68" x="105.615234"/>
       <use xlink:href="#ArialMT-6e" x="161.230469"/>
       <use xlink:href="#ArialMT-50" x="216.845703"/>
       <use xlink:href="#ArialMT-68" x="283.544922"/>
       <use xlink:href="#ArialMT-6f" x="339.160156"/>
       <use xlink:href="#ArialMT-73" x="394.775391"/>
      </g>
     </g>
    </g>
    <g id="xtick_7">
     <g id="line2d_7">
      <g>
       <use xlink:href="#m9c6cf16ff4" x="472.745455" y="540" style="stroke: #000000; stroke-width: 0.8"/>
      </g>
     </g>
     <g id="text_7">
      <!-- no phosphine -->
      <g transform="translate(464.307422 642.767864)rotate(-75)scale(0.16 -0.16)">
       <use xlink:href="#ArialMT-6e"/>
       <use xlink:href="#ArialMT-6f" x="55.615234"/>
       <use xlink:href="#ArialMT-20" x="111.230469"/>
       <use xlink:href="#ArialMT-70" x="139.013672"/>
       <use xlink:href="#ArialMT-68" x="194.628906"/>
       <use xlink:href="#ArialMT-6f" x="250.244141"/>
       <use xlink:href="#ArialMT-73" x="305.859375"/>
       <use xlink:href="#ArialMT-70" x="355.859375"/>
       <use xlink:href="#ArialMT-68" x="411.474609"/>
       <use xlink:href="#ArialMT-69" x="467.089844"/>
       <use xlink:href="#ArialMT-6e" x="489.306641"/>
       <use xlink:href="#ArialMT-65" x="544.921875"/>
      </g>
     </g>
    </g>
    <g id="xtick_8">
     <g id="line2d_8">
      <g>
       <use xlink:href="#m9c6cf16ff4" x="521.836364" y="540" style="stroke: #000000; stroke-width: 0.8"/>
      </g>
     </g>
     <g id="text_8">
      <!-- PPh3 -->
      <g transform="translate(520.766586 587.770462)rotate(-75)scale(0.16 -0.16)">
       <use xlink:href="#ArialMT-50"/>
       <use xlink:href="#ArialMT-50" x="66.699219"/>
       <use xlink:href="#ArialMT-68" x="133.398438"/>
       <use xlink:href="#ArialMT-33" x="189.013672"/>
      </g>
     </g>
    </g>
    <g id="xtick_9">
     <g id="line2d_9">
      <g>
       <use xlink:href="#m9c6cf16ff4" x="570.927273" y="540" style="stroke: #000000; stroke-width: 0.8"/>
      </g>
     </g>
     <g id="text_9">
      <!-- PCy3 -->
      <g transform="translate(569.863058 587.806443)rotate(-75)scale(0.16 -0.16)">
       <use xlink:href="#ArialMT-50"/>
       <use xlink:href="#ArialMT-43" x="66.699219"/>
       <use xlink:href="#ArialMT-79" x="138.916016"/>
       <use xlink:href="#ArialMT-33" x="188.916016"/>
      </g>
     </g>
    </g>
    <g id="xtick_10">
     <g id="line2d_10">
      <g>
       <use xlink:href="#m9c6cf16ff4" x="620.018182" y="540" style="stroke: #000000; stroke-width: 0.8"/>
      </g>
     </g>
     <g id="text_10">
      <!-- PtBu3 -->
      <g transform="translate(618.373178 592.064002)rotate(-75)scale(0.16 -0.16)">
       <use xlink:href="#ArialMT-50"/>
       <use xlink:href="#ArialMT-74" x="66.699219"/>
       <use xlink:href="#ArialMT-42" x="94.482422"/>
       <use xlink:href="#ArialMT-75" x="161.181641"/>
       <use xlink:href="#ArialMT-33" x="216.796875"/>
      </g>
     </g>
    </g>
    <g id="xtick_11">
     <g id="line2d_11">
      <g>
       <use xlink:href="#m9c6cf16ff4" x="669.109091" y="540" style="stroke: #000000; stroke-width: 0.8"/>
      </g>
     </g>
     <g id="text_11">
      <!-- CyJohnPhos -->
      <g transform="translate(661.368639 637.638556)rotate(-75)scale(0.16 -0.16)">
       <use xlink:href="#ArialMT-43"/>
       <use xlink:href="#ArialMT-79" x="72.216797"/>
       <use xlink:href="#ArialMT-4a" x="122.216797"/>
       <use xlink:href="#ArialMT-6f" x="172.216797"/>
       <use xlink:href="#ArialMT-68" x="227.832031"/>
       <use xlink:href="#ArialMT-6e" x="283.447266"/>
       <use xlink:href="#ArialMT-50" x="339.0625"/>
       <use xlink:href="#ArialMT-68" x="405.761719"/>
       <use xlink:href="#ArialMT-6f" x="461.376953"/>
       <use xlink:href="#ArialMT-73" x="516.992188"/>
      </g>
     </g>
    </g>
    <g id="xtick_12">
     <g id="line2d_12">
      <g>
       <use xlink:href="#m9c6cf16ff4" x="718.2" y="540" style="stroke: #000000; stroke-width: 0.8"/>
      </g>
     </g>
     <g id="text_12">
      <!-- JohnPhos -->
      <g transform="translate(712.986529 618.699407)rotate(-75)scale(0.16 -0.16)">
       <use xlink:href="#ArialMT-4a"/>
       <use xlink:href="#ArialMT-6f" x="50"/>
       <use xlink:href="#ArialMT-68" x="105.615234"/>
       <use xlink:href="#ArialMT-6e" x="161.230469"/>
       <use xlink:href="#ArialMT-50" x="216.845703"/>
       <use xlink:href="#ArialMT-68" x="283.544922"/>
       <use xlink:href="#ArialMT-6f" x="339.160156"/>
       <use xlink:href="#ArialMT-73" x="394.775391"/>
      </g>
     </g>
    </g>
    <g id="xtick_13">
     <g id="line2d_13">
      <g>
       <use xlink:href="#m9c6cf16ff4" x="767.290909" y="540" style="stroke: #000000; stroke-width: 0.8"/>
      </g>
     </g>
     <g id="text_13">
      <!-- no phosphine -->
      <g transform="translate(758.852876 642.767864)rotate(-75)scale(0.16 -0.16)">
       <use xlink:href="#ArialMT-6e"/>
       <use xlink:href="#ArialMT-6f" x="55.615234"/>
       <use xlink:href="#ArialMT-20" x="111.230469"/>
       <use xlink:href="#ArialMT-70" x="139.013672"/>
       <use xlink:href="#ArialMT-68" x="194.628906"/>
       <use xlink:href="#ArialMT-6f" x="250.244141"/>
       <use xlink:href="#ArialMT-73" x="305.859375"/>
       <use xlink:href="#ArialMT-70" x="355.859375"/>
       <use xlink:href="#ArialMT-68" x="411.474609"/>
       <use xlink:href="#ArialMT-69" x="467.089844"/>
       <use xlink:href="#ArialMT-6e" x="489.306641"/>
       <use xlink:href="#ArialMT-65" x="544.921875"/>
      </g>
     </g>
    </g>
    <g id="xtick_14">
     <g id="line2d_14">
      <g>
       <use xlink:href="#m9c6cf16ff4" x="816.381818" y="540" style="stroke: #000000; stroke-width: 0.8"/>
      </g>
     </g>
     <g id="text_14">
      <!-- PPh3 -->
      <g transform="translate(815.31204 587.770462)rotate(-75)scale(0.16 -0.16)">
       <use xlink:href="#ArialMT-50"/>
       <use xlink:href="#ArialMT-50" x="66.699219"/>
       <use xlink:href="#ArialMT-68" x="133.398438"/>
       <use xlink:href="#ArialMT-33" x="189.013672"/>
      </g>
     </g>
    </g>
    <g id="xtick_15">
     <g id="line2d_15">
      <g>
       <use xlink:href="#m9c6cf16ff4" x="865.472727" y="540" style="stroke: #000000; stroke-width: 0.8"/>
      </g>
     </g>
     <g id="text_15">
      <!-- PCy3 -->
      <g transform="translate(864.408513 587.806443)rotate(-75)scale(0.16 -0.16)">
       <use xlink:href="#ArialMT-50"/>
       <use xlink:href="#ArialMT-43" x="66.699219"/>
       <use xlink:href="#ArialMT-79" x="138.916016"/>
       <use xlink:href="#ArialMT-33" x="188.916016"/>
      </g>
     </g>
    </g>
    <g id="xtick_16">
     <g id="line2d_16">
      <g>
       <use xlink:href="#m9c6cf16ff4" x="914.563636" y="540" style="stroke: #000000; stroke-width: 0.8"/>
      </g>
     </g>
     <g id="text_16">
      <!-- PtBu3 -->
      <g transform="translate(912.918633 592.064002)rotate(-75)scale(0.16 -0.16)">
       <use xlink:href="#ArialMT-50"/>
       <use xlink:href="#ArialMT-74" x="66.699219"/>
       <use xlink:href="#ArialMT-42" x="94.482422"/>
       <use xlink:href="#ArialMT-75" x="161.181641"/>
       <use xlink:href="#ArialMT-33" x="216.796875"/>
      </g>
     </g>
    </g>
    <g id="xtick_17">
     <g id="line2d_17">
      <g>
       <use xlink:href="#m9c6cf16ff4" x="963.654545" y="540" style="stroke: #000000; stroke-width: 0.8"/>
      </g>
     </g>
     <g id="text_17">
      <!-- CyJohnPhos -->
      <g transform="translate(955.914094 637.638556)rotate(-75)scale(0.16 -0.16)">
       <use xlink:href="#ArialMT-43"/>
       <use xlink:href="#ArialMT-79" x="72.216797"/>
       <use xlink:href="#ArialMT-4a" x="122.216797"/>
       <use xlink:href="#ArialMT-6f" x="172.216797"/>
       <use xlink:href="#ArialMT-68" x="227.832031"/>
       <use xlink:href="#ArialMT-6e" x="283.447266"/>
       <use xlink:href="#ArialMT-50" x="339.0625"/>
       <use xlink:href="#ArialMT-68" x="405.761719"/>
       <use xlink:href="#ArialMT-6f" x="461.376953"/>
       <use xlink:href="#ArialMT-73" x="516.992188"/>
      </g>
     </g>
    </g>
    <g id="xtick_18">
     <g id="line2d_18">
      <g>
       <use xlink:href="#m9c6cf16ff4" x="1012.745455" y="540" style="stroke: #000000; stroke-width: 0.8"/>
      </g>
     </g>
     <g id="text_18">
      <!-- JohnPhos -->
      <g transform="translate(1007.531984 618.699407)rotate(-75)scale(0.16 -0.16)">
       <use xlink:href="#ArialMT-4a"/>
       <use xlink:href="#ArialMT-6f" x="50"/>
       <use xlink:href="#ArialMT-68" x="105.615234"/>
       <use xlink:href="#ArialMT-6e" x="161.230469"/>
       <use xlink:href="#ArialMT-50" x="216.845703"/>
       <use xlink:href="#ArialMT-68" x="283.544922"/>
       <use xlink:href="#ArialMT-6f" x="339.160156"/>
       <use xlink:href="#ArialMT-73" x="394.775391"/>
      </g>
     </g>
    </g>
    <g id="text_19">
     <!-- phosphine -->
     <g transform="translate(546.28125 659.043408)scale(0.16 -0.16)">
      <use xlink:href="#ArialMT-70"/>
      <use xlink:href="#ArialMT-68" x="55.615234"/>
      <use xlink:href="#ArialMT-6f" x="111.230469"/>
      <use xlink:href="#ArialMT-73" x="166.845703"/>
      <use xlink:href="#ArialMT-70" x="216.845703"/>
      <use xlink:href="#ArialMT-68" x="272.460938"/>
      <use xlink:href="#ArialMT-69" x="328.076172"/>
      <use xlink:href="#ArialMT-6e" x="350.292969"/>
      <use xlink:href="#ArialMT-65" x="405.908203"/>
     </g>
    </g>
   </g>
   <g id="matplotlib.axis_2">
    <g id="ytick_1">
     <g id="line2d_19">
      <defs>
       <path id="m24282282bc" d="M 0 0 
L -3.5 0 
" style="stroke: #000000; stroke-width: 0.8"/>
      </defs>
      <g>
       <use xlink:href="#m24282282bc" x="108" y="540" style="stroke: #000000; stroke-width: 0.8"/>
      </g>
     </g>
     <g id="text_20">
      <!-- 0.0 -->
      <g transform="translate(78.76 545.72625)scale(0.16 -0.16)">
       <defs>
        <path id="ArialMT-30" d="M 266 2259 
Q 266 3072 433 3567 
Q 600 4063 929 4331 
Q 1259 4600 1759 4600 
Q 2128 4600 2406 4451 
Q 2684 4303 2865 4023 
Q 3047 3744 3150 3342 
Q 3253 2941 3253 2259 
Q 3253 1453 3087 958 
Q 2922 463 2592 192 
Q 2263 -78 1759 -78 
Q 1097 -78 719 397 
Q 266 969 266 2259 
z
M 844 2259 
Q 844 1131 1108 757 
Q 1372 384 1759 384 
Q 2147 384 2411 759 
Q 2675 1134 2675 2259 
Q 2675 3391 2411 3762 
Q 2147 4134 1753 4134 
Q 1366 4134 1134 3806 
Q 844 3388 844 2259 
z
" transform="scale(0.015625)"/>
        <path id="ArialMT-2e" d="M 581 0 
L 581 641 
L 1222 641 
L 1222 0 
L 581 0 
z
" transform="scale(0.015625)"/>
       </defs>
       <use xlink:href="#ArialMT-30"/>
       <use xlink:href="#ArialMT-2e" x="55.615234"/>
       <use xlink:href="#ArialMT-30" x="83.398438"/>
      </g>
     </g>
    </g>
    <g id="ytick_2">
     <g id="line2d_20">
      <g>
       <use xlink:href="#m24282282bc" x="108" y="477" style="stroke: #000000; stroke-width: 0.8"/>
      </g>
     </g>
     <g id="text_21">
      <!-- 2.5 -->
      <g transform="translate(78.76 482.72625)scale(0.16 -0.16)">
       <defs>
        <path id="ArialMT-32" d="M 3222 541 
L 3222 0 
L 194 0 
Q 188 203 259 391 
Q 375 700 629 1000 
Q 884 1300 1366 1694 
Q 2113 2306 2375 2664 
Q 2638 3022 2638 3341 
Q 2638 3675 2398 3904 
Q 2159 4134 1775 4134 
Q 1369 4134 1125 3890 
Q 881 3647 878 3216 
L 300 3275 
Q 359 3922 746 4261 
Q 1134 4600 1788 4600 
Q 2447 4600 2831 4234 
Q 3216 3869 3216 3328 
Q 3216 3053 3103 2787 
Q 2991 2522 2730 2228 
Q 2469 1934 1863 1422 
Q 1356 997 1212 845 
Q 1069 694 975 541 
L 3222 541 
z
" transform="scale(0.015625)"/>
        <path id="ArialMT-35" d="M 266 1200 
L 856 1250 
Q 922 819 1161 601 
Q 1400 384 1738 384 
Q 2144 384 2425 690 
Q 2706 997 2706 1503 
Q 2706 1984 2436 2262 
Q 2166 2541 1728 2541 
Q 1456 2541 1237 2417 
Q 1019 2294 894 2097 
L 366 2166 
L 809 4519 
L 3088 4519 
L 3088 3981 
L 1259 3981 
L 1013 2750 
Q 1425 3038 1878 3038 
Q 2478 3038 2890 2622 
Q 3303 2206 3303 1553 
Q 3303 931 2941 478 
Q 2500 -78 1738 -78 
Q 1113 -78 717 272 
Q 322 622 266 1200 
z
" transform="scale(0.015625)"/>
       </defs>
       <use xlink:href="#ArialMT-32"/>
       <use xlink:href="#ArialMT-2e" x="55.615234"/>
       <use xlink:href="#ArialMT-35" x="83.398438"/>
      </g>
     </g>
    </g>
    <g id="ytick_3">
     <g id="line2d_21">
      <g>
       <use xlink:href="#m24282282bc" x="108" y="414" style="stroke: #000000; stroke-width: 0.8"/>
      </g>
     </g>
     <g id="text_22">
      <!-- 5.0 -->
      <g transform="translate(78.76 419.72625)scale(0.16 -0.16)">
       <use xlink:href="#ArialMT-35"/>
       <use xlink:href="#ArialMT-2e" x="55.615234"/>
       <use xlink:href="#ArialMT-30" x="83.398438"/>
      </g>
     </g>
    </g>
    <g id="ytick_4">
     <g id="line2d_22">
      <g>
       <use xlink:href="#m24282282bc" x="108" y="351" style="stroke: #000000; stroke-width: 0.8"/>
      </g>
     </g>
     <g id="text_23">
      <!-- 7.5 -->
      <g transform="translate(78.76 356.72625)scale(0.16 -0.16)">
       <defs>
        <path id="ArialMT-37" d="M 303 3981 
L 303 4522 
L 3269 4522 
L 3269 4084 
Q 2831 3619 2401 2847 
Q 1972 2075 1738 1259 
Q 1569 684 1522 0 
L 944 0 
Q 953 541 1156 1306 
Q 1359 2072 1739 2783 
Q 2119 3494 2547 3981 
L 303 3981 
z
" transform="scale(0.015625)"/>
       </defs>
       <use xlink:href="#ArialMT-37"/>
       <use xlink:href="#ArialMT-2e" x="55.615234"/>
       <use xlink:href="#ArialMT-35" x="83.398438"/>
      </g>
     </g>
    </g>
    <g id="ytick_5">
     <g id="line2d_23">
      <g>
       <use xlink:href="#m24282282bc" x="108" y="288" style="stroke: #000000; stroke-width: 0.8"/>
      </g>
     </g>
     <g id="text_24">
      <!-- 10.0 -->
      <g transform="translate(69.8625 293.72625)scale(0.16 -0.16)">
       <defs>
        <path id="ArialMT-31" d="M 2384 0 
L 1822 0 
L 1822 3584 
Q 1619 3391 1289 3197 
Q 959 3003 697 2906 
L 697 3450 
Q 1169 3672 1522 3987 
Q 1875 4303 2022 4600 
L 2384 4600 
L 2384 0 
z
" transform="scale(0.015625)"/>
       </defs>
       <use xlink:href="#ArialMT-31"/>
       <use xlink:href="#ArialMT-30" x="55.615234"/>
       <use xlink:href="#ArialMT-2e" x="111.230469"/>
       <use xlink:href="#ArialMT-30" x="139.013672"/>
      </g>
     </g>
    </g>
    <g id="ytick_6">
     <g id="line2d_24">
      <g>
       <use xlink:href="#m24282282bc" x="108" y="225" style="stroke: #000000; stroke-width: 0.8"/>
      </g>
     </g>
     <g id="text_25">
      <!-- 12.5 -->
      <g transform="translate(69.8625 230.72625)scale(0.16 -0.16)">
       <use xlink:href="#ArialMT-31"/>
       <use xlink:href="#ArialMT-32" x="55.615234"/>
       <use xlink:href="#ArialMT-2e" x="111.230469"/>
       <use xlink:href="#ArialMT-35" x="139.013672"/>
      </g>
     </g>
    </g>
    <g id="ytick_7">
     <g id="line2d_25">
      <g>
       <use xlink:href="#m24282282bc" x="108" y="162" style="stroke: #000000; stroke-width: 0.8"/>
      </g>
     </g>
     <g id="text_26">
      <!-- 15.0 -->
      <g transform="translate(69.8625 167.72625)scale(0.16 -0.16)">
       <use xlink:href="#ArialMT-31"/>
       <use xlink:href="#ArialMT-35" x="55.615234"/>
       <use xlink:href="#ArialMT-2e" x="111.230469"/>
       <use xlink:href="#ArialMT-30" x="139.013672"/>
      </g>
     </g>
    </g>
    <g id="ytick_8">
     <g id="line2d_26">
      <g>
       <use xlink:href="#m24282282bc" x="108" y="99" style="stroke: #000000; stroke-width: 0.8"/>
      </g>
     </g>
     <g id="text_27">
      <!-- 17.5 -->
      <g transform="translate(69.8625 104.72625)scale(0.16 -0.16)">
       <use xlink:href="#ArialMT-31"/>
       <use xlink:href="#ArialMT-37" x="55.615234"/>
       <use xlink:href="#ArialMT-2e" x="111.230469"/>
       <use xlink:href="#ArialMT-35" x="139.013672"/>
      </g>
     </g>
    </g>
    <g id="ytick_9">
     <g id="line2d_27">
      <g>
       <use xlink:href="#m24282282bc" x="108" y="36" style="stroke: #000000; stroke-width: 0.8"/>
      </g>
     </g>
     <g id="text_28">
      <!-- 20.0 -->
      <g transform="translate(69.8625 41.72625)scale(0.16 -0.16)">
       <use xlink:href="#ArialMT-32"/>
       <use xlink:href="#ArialMT-30" x="55.615234"/>
       <use xlink:href="#ArialMT-2e" x="111.230469"/>
       <use xlink:href="#ArialMT-30" x="139.013672"/>
      </g>
     </g>
    </g>
    <g id="text_29">
     <!-- BiNaph / % -->
     <g transform="translate(62.6825 328.01875)rotate(-90)scale(0.16 -0.16)">
      <defs>
       <path id="ArialMT-4e" d="M 488 0 
L 488 4581 
L 1109 4581 
L 3516 984 
L 3516 4581 
L 4097 4581 
L 4097 0 
L 3475 0 
L 1069 3600 
L 1069 0 
L 488 0 
z
" transform="scale(0.015625)"/>
       <path id="ArialMT-61" d="M 2588 409 
Q 2275 144 1986 34 
Q 1697 -75 1366 -75 
Q 819 -75 525 192 
Q 231 459 231 875 
Q 231 1119 342 1320 
Q 453 1522 633 1644 
Q 813 1766 1038 1828 
Q 1203 1872 1538 1913 
Q 2219 1994 2541 2106 
Q 2544 2222 2544 2253 
Q 2544 2597 2384 2738 
Q 2169 2928 1744 2928 
Q 1347 2928 1158 2789 
Q 969 2650 878 2297 
L 328 2372 
Q 403 2725 575 2942 
Q 747 3159 1072 3276 
Q 1397 3394 1825 3394 
Q 2250 3394 2515 3294 
Q 2781 3194 2906 3042 
Q 3031 2891 3081 2659 
Q 3109 2516 3109 2141 
L 3109 1391 
Q 3109 606 3145 398 
Q 3181 191 3288 0 
L 2700 0 
Q 2613 175 2588 409 
z
M 2541 1666 
Q 2234 1541 1622 1453 
Q 1275 1403 1131 1340 
Q 988 1278 909 1158 
Q 831 1038 831 891 
Q 831 666 1001 516 
Q 1172 366 1500 366 
Q 1825 366 2078 508 
Q 2331 650 2450 897 
Q 2541 1088 2541 1459 
L 2541 1666 
z
" transform="scale(0.015625)"/>
       <path id="ArialMT-2f" d="M 0 -78 
L 1328 4659 
L 1778 4659 
L 453 -78 
L 0 -78 
z
" transform="scale(0.015625)"/>
       <path id="ArialMT-25" d="M 372 3481 
Q 372 3972 619 4315 
Q 866 4659 1334 4659 
Q 1766 4659 2048 4351 
Q 2331 4044 2331 3447 
Q 2331 2866 2045 2552 
Q 1759 2238 1341 2238 
Q 925 2238 648 2547 
Q 372 2856 372 3481 
z
M 1350 4272 
Q 1141 4272 1002 4090 
Q 863 3909 863 3425 
Q 863 2984 1003 2804 
Q 1144 2625 1350 2625 
Q 1563 2625 1702 2806 
Q 1841 2988 1841 3469 
Q 1841 3913 1700 4092 
Q 1559 4272 1350 4272 
z
M 1353 -169 
L 3859 4659 
L 4316 4659 
L 1819 -169 
L 1353 -169 
z
M 3334 1075 
Q 3334 1569 3581 1911 
Q 3828 2253 4300 2253 
Q 4731 2253 5014 1945 
Q 5297 1638 5297 1041 
Q 5297 459 5011 145 
Q 4725 -169 4303 -169 
Q 3888 -169 3611 142 
Q 3334 453 3334 1075 
z
M 4316 1866 
Q 4103 1866 3964 1684 
Q 3825 1503 3825 1019 
Q 3825 581 3965 400 
Q 4106 219 4313 219 
Q 4528 219 4667 400 
Q 4806 581 4806 1063 
Q 4806 1506 4665 1686 
Q 4525 1866 4316 1866 
z
" transform="scale(0.015625)"/>
      </defs>
      <use xlink:href="#ArialMT-42"/>
      <use xlink:href="#ArialMT-69" x="66.699219"/>
      <use xlink:href="#ArialMT-4e" x="88.916016"/>
      <use xlink:href="#ArialMT-61" x="161.132812"/>
      <use xlink:href="#ArialMT-70" x="216.748047"/>
      <use xlink:href="#ArialMT-68" x="272.363281"/>
      <use xlink:href="#ArialMT-20" x="327.978516"/>
      <use xlink:href="#ArialMT-2f" x="355.761719"/>
      <use xlink:href="#ArialMT-20" x="383.544922"/>
      <use xlink:href="#ArialMT-25" x="411.328125"/>
     </g>
    </g>
   </g>
   <g id="LineCollection_1">
    <path d="M 165.927273 504.216 
L 165.927273 502.704 
" clip-path="url(#p31a499bbdd)" style="fill: none; stroke: #000000; stroke-width: 1.5"/>
    <path d="M 215.018182 501.444 
L 215.018182 464.652 
" clip-path="url(#p31a499bbdd)" style="fill: none; stroke: #000000; stroke-width: 1.5"/>
    <path d="M 264.109091 500.688 
L 264.109091 415.008 
" clip-path="url(#p31a499bbdd)" style="fill: none; stroke: #000000; stroke-width: 1.5"/>
    <path d="M 313.2 496.908 
L 313.2 444.996 
" clip-path="url(#p31a499bbdd)" style="fill: none; stroke: #000000; stroke-width: 1.5"/>
    <path d="M 362.290909 464.652 
L 362.290909 418.284 
" clip-path="url(#p31a499bbdd)" style="fill: none; stroke: #000000; stroke-width: 1.5"/>
    <path d="M 411.381818 421.308 
L 411.381818 371.916 
" clip-path="url(#p31a499bbdd)" style="fill: none; stroke: #000000; stroke-width: 1.5"/>
    <path d="M 460.472727 519.10258 
L 460.472727 518.315886 
" clip-path="url(#p31a499bbdd)" style="fill: none; stroke: #000000; stroke-width: 1.5"/>
    <path d="M 509.563636 506.292718 
L 509.563636 497.87774 
" clip-path="url(#p31a499bbdd)" style="fill: none; stroke: #000000; stroke-width: 1.5"/>
    <path d="M 558.654545 203.565135 
L 558.654545 104.482531 
" clip-path="url(#p31a499bbdd)" style="fill: none; stroke: #000000; stroke-width: 1.5"/>
    <path d="M 607.745455 526.118345 
L 607.745455 524.781765 
" clip-path="url(#p31a499bbdd)" style="fill: none; stroke: #000000; stroke-width: 1.5"/>
    <path d="M 656.836364 508.325191 
L 656.836364 476.154979 
" clip-path="url(#p31a499bbdd)" style="fill: none; stroke: #000000; stroke-width: 1.5"/>
    <path d="M 705.927273 517.130385 
L 705.927273 502.071632 
" clip-path="url(#p31a499bbdd)" style="fill: none; stroke: #000000; stroke-width: 1.5"/>
    <path d="M 755.018182 529.188971 
L 755.018182 528.75833 
" clip-path="url(#p31a499bbdd)" style="fill: none; stroke: #000000; stroke-width: 1.5"/>
    <path d="M 804.109091 520.079996 
L 804.109091 516.812949 
" clip-path="url(#p31a499bbdd)" style="fill: none; stroke: #000000; stroke-width: 1.5"/>
    <path d="M 853.2 237.741694 
L 853.2 110.612915 
" clip-path="url(#p31a499bbdd)" style="fill: none; stroke: #000000; stroke-width: 1.5"/>
    <path d="M 902.290909 537.487243 
L 902.290909 537.487243 
" clip-path="url(#p31a499bbdd)" style="fill: none; stroke: #000000; stroke-width: 1.5"/>
    <path d="M 951.381818 537.487243 
L 951.381818 526.545504 
" clip-path="url(#p31a499bbdd)" style="fill: none; stroke: #000000; stroke-width: 1.5"/>
    <path d="M 1000.472727 537.487243 
L 1000.472727 537.487243 
" clip-path="url(#p31a499bbdd)" style="fill: none; stroke: #000000; stroke-width: 1.5"/>
   </g>
   <g id="patch_21">
    <path d="M 108 540 
L 108 36 
" style="fill: none; stroke: #000000; stroke-width: 0.8; stroke-linejoin: miter; stroke-linecap: square"/>
   </g>
   <g id="patch_22">
    <path d="M 1058.4 540 
L 1058.4 36 
" style="fill: none; stroke: #000000; stroke-width: 0.8; stroke-linejoin: miter; stroke-linecap: square"/>
   </g>
   <g id="patch_23">
    <path d="M 108 540 
L 1058.4 540 
" style="fill: none; stroke: #000000; stroke-width: 0.8; stroke-linejoin: miter; stroke-linecap: square"/>
   </g>
   <g id="patch_24">
    <path d="M 108 36 
L 1058.4 36 
" style="fill: none; stroke: #000000; stroke-width: 0.8; stroke-linejoin: miter; stroke-linecap: square"/>
   </g>
  </g>
 </g>
 <defs>
  <clipPath id="p31a499bbdd">
   <rect x="108" y="36" width="950.4" height="504"/>
  </clipPath>
 </defs>
</svg>
